<svg width="26" height="26" viewBox="0 0 26 26" fill="none" xmlns="http://www.w3.org/2000/svg">
<path d="M17.3333 16.25H8.66668C7.46959 16.25 6.50001 17.2196 6.50001 18.4167V22.75H19.5V18.4167C19.5 17.2196 18.5304 16.25 17.3333 16.25ZM13 14.0833C14.1971 14.0833 15.1667 13.1138 15.1667 11.9167C15.1667 10.7196 14.1971 9.75 13 9.75C11.8029 9.75 10.8333 10.7196 10.8333 11.9167C10.8333 13.1138 11.8029 14.0833 13 14.0833ZM18.4167 7.58333C19.6138 7.58333 20.5833 6.61375 20.5833 5.41667C20.5833 4.21958 19.6138 3.25 18.4167 3.25C17.2196 3.25 16.25 4.21958 16.25 5.41667C16.25 6.61375 17.2196 7.58333 18.4167 7.58333ZM9.26901 14.0833C8.89634 13.4431 8.66668 12.7097 8.66668 11.9167C8.66668 11.1237 8.89634 10.3903 9.26901 9.75H3.25001C2.05293 9.75 1.08334 10.7196 1.08334 11.9167V16.25H4.93568C5.68751 14.9608 7.06984 14.0833 8.66668 14.0833H9.26901ZM7.58334 7.58333C8.78043 7.58333 9.75001 6.61375 9.75001 5.41667C9.75001 4.21958 8.78043 3.25 7.58334 3.25C6.38626 3.25 5.41668 4.21958 5.41668 5.41667C5.41668 6.61375 6.38626 7.58333 7.58334 7.58333ZM22.75 9.75H16.731C17.1037 10.3903 17.3333 11.1237 17.3333 11.9167C17.3333 12.7097 17.1037 13.4431 16.731 14.0833H17.3333C18.9302 14.0833 20.3125 14.9608 21.0643 16.25H24.9167V11.9167C24.9167 10.7196 23.9471 9.75 22.75 9.75Z" fill="black"/>
</svg>
