<svg width="26" height="26" viewBox="0 0 26 26" fill="none" xmlns="http://www.w3.org/2000/svg">
<path d="M22.779 10.076L21.668 5.203C21.58 3.918 20.479 2.94 19.193 3.003H6.818C5.529 2.934 4.426 3.915 4.343 5.203L3.243 10.076C2.501 10.838 2.059 12.942 2 14.003V17.303C2.005 18.084 2.423 18.804 3.1 19.195V21.153C3.1 22.064 3.839 22.803 4.75 22.803C5.661 22.803 6.4 22.064 6.4 21.153V19.503H19.6V21.153C19.6 22.064 20.339 22.803 21.25 22.803C22.161 22.803 22.9 22.064 22.9 21.153V19.195C23.577 18.804 23.995 18.084 24 17.303V14.003C23.947 12.945 23.513 10.841 22.779 10.076ZM6.499 6.028C6.558 5.06 7.389 4.322 8.358 4.378H17.642C18.611 4.322 19.442 5.06 19.501 6.028L20.37 9.603H5.63L6.499 6.028ZM5.3 17.303C4.085 17.303 3.1 16.318 3.1 15.103C3.1 13.888 4.085 12.903 5.3 12.903C6.515 12.903 7.5 13.888 7.5 15.103C7.5 16.318 6.515 17.303 5.3 17.303ZM16.3 17.303H9.7C9.095 17.303 8.6 16.808 8.6 16.203C8.6 15.598 9.095 15.103 9.7 15.103H16.3C16.905 15.103 17.4 15.598 17.4 16.203C17.4 16.808 16.905 17.303 16.3 17.303ZM20.7 17.303C19.485 17.303 18.5 16.318 18.5 15.103C18.5 13.888 19.485 12.903 20.7 12.903C21.915 12.903 22.9 13.888 22.9 15.103C22.9 16.318 21.915 17.303 20.7 17.303Z" fill="black"/>
</svg>
