<svg width="26" height="26" viewBox="0 0 26 26" fill="none" xmlns="http://www.w3.org/2000/svg">
<path d="M17 3H9C7.35 3 5 4.35 5 6V17C5 18.65 6.35 20 8 20H8.586L7.05 21.536C6.661 21.925 6.661 22.561 7.05 22.95C7.439 23.339 8.075 23.339 8.464 22.95L11.414 20H14.586L17.536 22.95C17.925 23.339 18.561 23.339 18.95 22.95C19.339 22.561 19.339 21.925 18.95 21.536L17.414 20H18C19.65 20 21 18.65 21 17V6C21 4.35 18.65 3 17 3ZM18 4C18.552 4 19 4.448 19 5C19 5.552 18.552 6 18 6C17.448 6 17 5.552 17 5C17 4.448 17.448 4 18 4ZM10 4H16V6H10V4ZM8 4C8.552 4 9 4.448 9 5C9 5.552 8.552 6 8 6C7.448 6 7 5.552 7 5C7 4.448 7.448 4 8 4ZM20 13H6V7H20V13Z" fill="black"/>
</svg>
