<svg width="26" height="26" viewBox="0 0 26 26" fill="none" xmlns="http://www.w3.org/2000/svg">
<path d="M10 23H16V3H10V23ZM11 4H15V14H11V4ZM13 16C14.105 16 15 16.895 15 18C15 19.105 14.105 20 13 20C11.895 20 11 19.105 11 18C11 16.895 11.895 16 13 16ZM2 23H8V3H2V23ZM3 4H7V14H3V4ZM5 16C6.105 16 7 16.895 7 18C7 19.105 6.105 20 5 20C3.895 20 3 19.105 3 18C3 16.895 3.895 16 5 16ZM18 3V23H24V3H18ZM21 20C19.895 20 19 19.105 19 18C19 16.895 19.895 16 21 16C22.105 16 23 16.895 23 18C23 19.105 22.105 20 21 20ZM23 14H19V4H23V14Z" fill="black"/>
</svg>
