<svg width="26" height="26" viewBox="0 0 26 26" fill="none" xmlns="http://www.w3.org/2000/svg">
<path d="M21 20H5V9H6.067V19H21V20ZM10 14.4H8V18H10V14.4ZM13 9H11V18H13V9ZM16 11.7H14V18H16V11.7ZM19 16.2H17V18H19V16.2ZM23 5.417V8V20.583C23 21.362 22.362 22 21.583 22H4.417C3.638 22 3 21.362 3 20.583V8V5.417C3 4.638 3.638 4 4.417 4H21.582C22.362 4 23 4.638 23 5.417ZM7 6C7 6.552 7.448 7 8 7C8.552 7 9 6.552 9 6C9 5.448 8.552 5 8 5C7.448 5 7 5.448 7 6ZM4 6C4 6.552 4.448 7 5 7C5.552 7 6 6.552 6 6C6 5.448 5.552 5 5 5C4.448 5 4 5.448 4 6ZM22 8H4V20.583C4 20.809 4.191 21 4.417 21H21.582C21.809 21 22 20.809 22 20.583V8Z" fill="black"/>
</svg>
