<svg width="26" height="26" viewBox="0 0 26 26" fill="none" xmlns="http://www.w3.org/2000/svg">
<path d="M20 5H16C16 3.343 14.657 2 13 2C11.343 2 10 3.343 10 5H6C5.45 5 5 5.45 5 6V22C5 22.55 5.45 23 6 23H20C20.55 23 21 22.55 21 22V6C21 5.45 20.55 5 20 5ZM12 4C12 3.448 12.448 3 13 3C13.552 3 14 3.448 14 4C14 4.552 13.552 5 13 5C12.448 5 12 4.552 12 4ZM19.583 21.583H6.417V6.417H9V7H17V6.417H19.583V21.583ZM18 19.209H10.728V17.791H18V19.209ZM9.818 19.209H8V17.791H9.818V19.209ZM18 15.459H10.728V14.041H18V15.459ZM9.818 15.459H8V14.041H9.818V15.459ZM18 11.708H10.728V10.292H18V11.708ZM9.818 11.708H8V10.292H9.818V11.708Z" fill="black"/>
</svg>
