<svg width="26" height="26" viewBox="0 0 26 26" fill="none" xmlns="http://www.w3.org/2000/svg">
<path d="M3.178 15.873C3.178 18.108 4.93 20.876 6.461 21.817C7.992 22.757 10.14 23 13.089 23C16.038 23 18.185 22.757 19.717 21.817C21.248 20.876 23 18.108 23 15.873C23 11.104 17.577 7.952 16 7L18.843 4.136L18.127 3.828C18.127 3.828 15.305 3 13.089 3C10.872 3 8.05 3.828 8.05 3.828L7.334 4.136L10 7C9 7 7.152 7.125 6.428 7.394C5.642 7.686 4.891 8.082 4.208 8.577C4.064 8.682 3.712 8.993 3.447 9.229C3.227 9.405 3 9.624 3 9.94C3 10.372 3.341 10.721 3.762 10.721C3.769 10.721 3.776 10.72 3.783 10.72C3.784 10.72 3.786 10.721 3.787 10.721C3.789 10.721 3.792 10.72 3.795 10.719C4.053 10.708 4.12 10.582 4.406 10.357C4.684 10.138 4.962 9.882 5.096 9.781C5.565 9.427 7 9 8 9C6.333 10.516 3.178 12.761 3.178 15.873ZM11 7.516C11 7.237 11.074 6.986 11.396 6.868C11.909 6.679 14.147 6.679 14.66 6.868C14.817 6.926 15.057 7.238 14.988 7.609C14.939 7.877 14.689 8.063 14.507 7.981C13.967 7.739 11.978 7.855 11.482 7.981C11.183 8.056 11 7.795 11 7.516ZM11.408 15.082L9.108 11.793C8.986 11.617 8.926 11.439 8.926 11.258C8.926 10.95 9.057 10.711 9.321 10.54C9.516 10.408 9.721 10.342 9.936 10.342C10.253 10.342 10.51 10.491 10.706 10.789L13.087 14.525L15.474 10.789C15.665 10.491 15.913 10.342 16.222 10.342C16.494 10.342 16.732 10.427 16.932 10.598C17.142 10.774 17.247 10.989 17.247 11.243C17.247 11.433 17.185 11.617 17.063 11.792L14.763 15.081H16.762C16.895 15.081 17.006 15.124 17.1 15.212C17.221 15.335 17.283 15.488 17.283 15.674C17.283 15.879 17.21 16.04 17.063 16.157C16.98 16.22 16.879 16.253 16.762 16.253H14.074V17.571H16.762C16.884 17.571 16.99 17.61 17.077 17.688C17.214 17.805 17.282 17.961 17.282 18.157C17.282 18.391 17.191 18.564 17.011 18.677C16.937 18.721 16.854 18.743 16.761 18.743H14.073V20.807C14.073 21.018 14.007 21.194 13.876 21.334C13.68 21.535 13.414 21.635 13.077 21.635C12.672 21.635 12.382 21.496 12.206 21.217C12.132 21.1 12.096 20.964 12.096 20.807V18.743H9.408C9.277 18.743 9.164 18.698 9.072 18.61C8.949 18.489 8.888 18.335 8.888 18.149C8.888 17.934 8.968 17.771 9.13 17.659C9.207 17.6 9.3 17.571 9.407 17.571H12.095V16.253H9.408C9.262 16.253 9.144 16.206 9.056 16.113C8.944 15.996 8.888 15.849 8.888 15.674C8.888 15.435 8.978 15.259 9.159 15.147C9.231 15.103 9.314 15.082 9.407 15.082H11.408Z" fill="black"/>
</svg>
