<svg width="26" height="26" viewBox="0 0 26 26" fill="none" xmlns="http://www.w3.org/2000/svg">
<path d="M14 15.709H8V14.291H14V15.709ZM16 11.096H8V12.513H16V11.096ZM21.522 14.092L19 16.614V21.328C19 22.25 18.229 23 17.282 23H6.718C5.771 23 5 22.25 5 21.328V4.672C5 3.75 5.771 3 6.718 3H13.203L19 7.893V11.669L19.049 11.62L21.522 14.092ZM13.472 7.607C13.472 7.761 13.605 7.892 13.765 7.892H16.752L13.472 5.099V7.607ZM17.575 18.039L15.102 20.512L12.141 21L12.518 18.709H8V17.291H13.377L17.575 13.093V9.279H13.764C12.817 9.279 12.046 8.529 12.046 7.607V4.387H6.718C6.559 4.387 6.426 4.518 6.426 4.672V21.328C6.426 21.483 6.559 21.613 6.718 21.613H17.282C17.441 21.613 17.575 21.483 17.575 21.328V18.039ZM20.28 10.388L19.537 11.131L22.01 13.604L22.753 12.861L20.28 10.388Z" fill="black"/>
</svg>
