<svg width="26" height="26" viewBox="0 0 26 26" fill="none" xmlns="http://www.w3.org/2000/svg">
<path d="M19.583 8.386H17.5V6.232L13.166 3H8.5V8.386H6.417C5.638 8.386 5 9.024 5 9.803V22.082C5 22.862 5.638 23.499 6.417 23.499H19.582C20.361 23.499 20.999 22.861 20.999 22.082V9.803C21 9.024 20.362 8.386 19.583 8.386ZM10.5 5H13V6.5H15.5V8.386H10.5V5ZM12.981 21.5C9.667 21.5 6.981 18.814 6.981 15.5C6.981 12.186 9.667 9.5 12.981 9.5C16.295 9.5 18.981 12.186 18.981 15.5C18.981 18.814 16.294 21.5 12.981 21.5ZM12.5 10.606H14.5V16.43H9V14.43H12.5V10.606Z" fill="black"/>
</svg>
