<svg width="26" height="26" viewBox="0 0 26 26" fill="none" xmlns="http://www.w3.org/2000/svg">
<path d="M21.5583 6.49998C21.2333 7.47498 20.475 8.23331 19.5 8.55831C20.475 8.88331 21.2333 9.64164 21.5583 10.6166C21.8833 9.64164 22.6417 8.88331 23.6167 8.55831C22.6417 8.23331 21.8833 7.47498 21.5583 6.49998ZM17.4417 5.95831C17.225 6.60831 16.6833 7.14998 16.0333 7.36664C16.6833 7.58331 17.225 8.01664 17.4417 8.66664C17.6583 8.01664 18.2 7.47497 18.85 7.25831C18.0917 7.14997 17.6583 6.60831 17.4417 5.95831ZM17.4417 4.76664C18.4167 5.09164 19.175 5.84998 19.5 6.82498C19.825 5.84998 20.5833 5.09164 21.5583 4.76664C20.5833 4.44164 19.825 3.68331 19.5 2.70831C19.175 3.79164 18.4167 4.54998 17.4417 4.76664ZM19.175 23.8333L14.3 10.6166V9.09997C14.3 8.34164 13.7583 7.69164 13.1083 7.47498V7.04164C13.1083 6.93331 13.1083 6.82498 13.1083 6.82498C13 6.49998 12.7833 6.17497 12.5667 5.95831L12.675 5.41664H12.7833C13.325 5.95831 14.7333 7.69164 15.0583 9.74998C15.0583 10.075 15.3833 10.2916 15.7083 10.2916H15.8167C16.1417 10.2916 16.4667 9.85831 16.3583 9.53331C16.0333 7.79998 15.1667 6.28331 14.4083 5.41664H14.95C15.275 5.41664 15.6 5.09164 15.6 4.76664V4.54997H16.575C17.0083 4.54997 17.3333 4.33331 17.3333 3.89998V2.38331C17.3333 2.05831 17.0083 1.73331 16.6833 1.73331H15.7083V1.62498C15.7083 1.29998 15.3833 0.974976 15.0583 0.974976H10.5083C10.4 0.974976 10.4 0.974976 10.2917 0.974976L7.475 1.94998C7.15 2.05831 7.04167 2.27498 7.04167 2.59998V4.76664C7.04167 5.09164 7.25834 5.41664 7.69167 5.41664H9.1V5.84998C8.55833 6.06664 8.23334 6.49998 8.23334 7.04164V7.47498C7.475 7.69164 7.04167 8.34164 7.04167 9.09997V10.6166L2.16667 23.8333C2.05834 24.05 2.16667 24.2666 2.275 24.375C2.38334 24.5916 2.6 24.7 2.81667 24.7H18.6333C18.85 24.7 19.0667 24.5916 19.175 24.375C19.175 24.2666 19.2833 24.05 19.175 23.8333ZM15.7083 3.03331H16.0333V3.24998H15.7083V3.03331ZM9.53334 7.04164C9.53334 6.93331 9.64167 6.93331 9.64167 6.93331H11.7C11.8083 6.93331 11.8083 7.04164 11.8083 7.04164V7.36664H9.53334V7.04164ZM8.66667 8.66664H12.675C12.8917 8.66664 13 8.88331 13 9.09997V10.075H8.34167V9.09997C8.34167 8.88331 8.45 8.66664 8.66667 8.66664ZM8.34167 4.11664V3.03331L10.6167 2.27498H14.4083V2.38331V3.89998V4.00831H13.1083H12.2417C12.025 4.00831 11.7 4.22498 11.5917 4.44164L11.1583 5.52497H10.2917V4.76664C10.2917 4.44164 9.96667 4.11664 9.64167 4.11664H8.34167ZM3.68334 23.5083L8.125 11.375H13.2167L17.6583 23.5083H3.68334Z" fill="black"/>
</svg>
