<svg width="26" height="26" viewBox="0 0 26 26" fill="none" xmlns="http://www.w3.org/2000/svg">
<path fill-rule="evenodd" clip-rule="evenodd" d="M15.8167 4.65835H17.1167C17.6583 4.65835 18.0917 4.87501 18.4167 5.30835C19.3917 6.60835 21.9917 11.1583 21.9917 11.1583C21.9917 11.1583 22.8583 12.35 23.5083 13C24.2667 13.975 24.5917 14.4083 24.5917 15.4917V17.55C24.5917 18.4167 23.8333 19.175 22.9667 19.175H22.3167C22.3167 21.0167 20.9083 22.425 19.0667 22.425C17.225 22.425 15.8167 21.0167 15.8167 19.175H10.2917C10.2917 21.0167 8.88332 22.425 7.04166 22.425C5.19999 22.425 3.79166 21.0167 3.79166 19.175H2.49166C1.84166 19.175 1.40833 18.7417 1.40833 18.0917V5.74168C1.40833 5.09168 1.84166 4.65835 2.49166 4.65835H12.7833V3.57501H15.925V4.65835H15.8167ZM7.04166 17.875C7.79999 17.875 8.44999 18.525 8.44999 19.2833C8.44999 20.0417 7.79999 20.6917 7.04166 20.6917C6.28332 20.6917 5.63332 20.0417 5.63332 19.2833C5.74166 18.525 6.28332 17.875 7.04166 17.875ZM19.175 17.875C19.9333 17.875 20.5833 18.525 20.5833 19.2833C20.5833 20.0417 19.9333 20.6917 19.175 20.6917C18.4167 20.6917 17.7667 20.0417 17.7667 19.2833C17.7667 18.525 18.4167 17.875 19.175 17.875ZM12.5667 13.325V6.82501H3.57499V17.0083H4.65833C5.19999 16.3583 6.06666 15.925 7.04166 15.925C8.01666 15.925 8.88332 16.3583 9.42499 17.0083H12.5667V13.325ZM14.7333 17.0083H16.6833C17.225 16.3583 18.0917 15.925 19.0667 15.925C20.0417 15.925 20.9083 16.3583 21.45 17.0083H22.425V15.4917C22.425 14.95 22.3167 14.7333 21.9917 14.4083L21.0167 13.325H14.625V17.0083H14.7333ZM9.09999 8.23335V10.4H11.2667V12.5667H9.09999V14.7333H6.93333V12.5667H4.76666V10.4H6.93333V8.23335H9.09999ZM16.9 6.82501H14.7333V11.1583H19.3917L16.9 6.82501Z" fill="black"/>
</svg>
