<svg width="26" height="26" viewBox="0 0 26 26" fill="none" xmlns="http://www.w3.org/2000/svg">
<path fill-rule="evenodd" clip-rule="evenodd" d="M3.35832 15.0583H23.9417V16.575V17.875V20.3667H22.5333V17.875H3.35832V20.3667H2.05832V7.36668C2.05832 6.93334 2.38332 6.71667 2.70832 6.71667C3.03332 6.71667 3.35832 7.04168 3.35832 7.36668V15.0583ZM5.84999 13.325C6.71665 13.325 7.36665 12.675 7.36665 11.8083C7.36665 10.9417 6.71665 10.2917 5.84999 10.2917C4.98332 10.2917 4.33332 10.9417 4.33332 11.8083C4.33332 12.675 4.98332 13.325 5.84999 13.325ZM22.8583 10.6167H9.31665C8.77499 10.6167 8.23332 11.1583 8.23332 11.7V14.3H24.05V11.7C23.9417 11.1583 23.5083 10.6167 22.8583 10.6167Z" fill="black"/>
</svg>
