<svg width="26" height="26" viewBox="0 0 26 26" fill="none" xmlns="http://www.w3.org/2000/svg">
<path d="M22.75 9.20831C22.6417 9.53331 22.5333 9.85831 22.3167 10.075V2.92498C22.2083 1.94998 21.45 1.08331 20.475 1.08331H3.89999C2.92499 1.08331 2.05832 1.94998 2.05832 2.92498V19.5C2.05832 20.475 2.92499 21.3416 3.79165 21.3416H4.44165C4.76665 22.75 5.95832 25.1333 10.075 25.1333C13.7583 25.1333 14.95 23.5083 15.925 21.8833C16.0333 21.775 16.1417 21.5583 16.25 21.3416H20.475C21.45 21.3416 22.3167 20.475 22.3167 19.5V11.1583C22.5333 11.375 22.6417 11.5916 22.75 11.8083C22.9667 11.2666 23.4 10.725 24.05 10.5083C23.5083 10.2916 22.9667 9.85831 22.75 9.20831ZM14.4083 21.0166C14.0833 22.3166 13.325 23.6166 10.1833 23.6166C5.95832 23.6166 5.84999 20.6916 5.74165 20.3666V8.77498C5.74165 8.66665 5.95832 8.44998 6.28332 8.44998H6.39165C6.71665 8.44998 6.93332 8.55831 6.93332 8.77498V14.625C6.93332 15.0583 7.25832 15.3833 7.58332 15.3833C7.90832 15.3833 8.23332 15.0583 8.23332 14.625V7.04165C8.23332 6.93331 8.44999 6.82498 8.66665 6.82498H8.77499C9.09999 6.82498 9.20832 6.93331 9.31665 6.93331V14.0833C9.31665 14.5166 9.64165 14.8416 9.96665 14.8416C10.2917 14.8416 10.6167 14.5166 10.6167 14.0833V5.84998C10.6167 5.74165 10.8333 5.63331 11.1583 5.63331H11.2667C11.5917 5.63331 11.7 5.74165 11.7 5.84998V13.975C11.7 14.4083 12.025 14.625 12.35 14.625C12.675 14.625 13 14.3 13 13.975V7.79998C13 7.69165 13.2167 7.47498 13.65 7.47498C13.975 7.47498 14.0833 7.58331 14.0833 7.79998V17.225C14.0833 17.55 14.1917 17.7666 14.5167 17.875C14.7333 17.9833 15.0583 17.9833 15.275 17.7666C15.8167 17.3333 16.25 16.9 16.575 16.4666C17.0083 16.0333 17.4417 15.4916 17.6583 15.4916C17.9833 15.3833 18.2 15.4916 18.2 15.4916C18.2 15.4916 18.2 15.6 17.9833 15.925C17.7667 16.3583 17.225 17.1166 16.575 17.875C15.7083 18.9583 14.8417 20.2583 14.4083 21.0166ZM20.475 19.825H17.225C17.55 19.5 17.7667 19.0666 18.0917 18.7416C18.7417 17.875 19.2833 17.225 19.5 16.7916C20.2583 15.8166 19.9333 15.0583 19.825 14.8416C19.5 14.1916 18.6333 13.975 17.7667 14.1916C17.1167 14.3 16.575 14.8416 15.8167 15.6C15.8167 15.6 15.8167 15.6 15.7083 15.7083V7.79998C15.7083 6.82498 14.8417 6.06665 13.7583 6.06665C13.5417 6.06665 13.4333 6.06665 13.2167 6.17498V5.84998C13.2167 4.87498 12.35 4.22498 11.375 4.22498H11.2667C10.4 4.11665 9.64165 4.65831 9.42498 5.41665C9.20832 5.41665 9.09999 5.30831 8.88332 5.30831H8.77499C7.69165 5.30831 6.93332 6.06665 6.93332 6.93331V7.04165C6.71665 7.04165 6.49999 7.04165 6.39165 7.04165H6.28332C5.19999 7.04165 4.33332 7.79998 4.33332 8.77498V19.825H3.89999C3.79165 19.825 3.46665 19.6083 3.46665 19.5V2.92498C3.46665 2.70831 3.68332 2.49165 3.89999 2.49165H20.475C20.5833 2.49165 20.8 2.59998 20.8 2.92498C20.8 2.92498 20.8 4.11665 20.8 4.33331C20.475 4.00831 20.15 3.57498 20.0417 3.14165C19.7167 4.11665 18.9583 4.87498 17.9833 5.19998C18.9583 5.52498 19.7167 6.28331 20.0417 7.25831C20.15 6.82498 20.475 6.39165 20.8 6.06665C20.8 10.1833 20.8 19.5 20.8 19.5C20.8 19.6083 20.5833 19.825 20.475 19.825ZM19.9333 8.99165C19.175 9.20831 18.525 9.85831 18.3083 10.6166C18.0917 9.85831 17.4417 9.20831 16.6833 8.99165C17.4417 8.77498 18.0917 8.12498 18.3083 7.36665C18.525 8.12498 19.175 8.77498 19.9333 8.99165Z" fill="black"/>
</svg>
