<svg width="26" height="26" viewBox="0 0 26 26" fill="none" xmlns="http://www.w3.org/2000/svg">
<path d="M2.60001 18.4166C2.38334 18.0916 2.49168 17.7666 2.81668 17.55L5.09168 16.25C5.41668 16.0333 5.74168 16.1416 5.95834 16.4666C6.17501 16.7916 6.06668 17.1166 5.74168 17.3333L3.57501 18.6333C3.46668 18.7416 3.35834 18.7416 3.14168 18.7416C2.92501 18.7416 2.70834 18.6333 2.60001 18.4166ZM2.70834 15.8166H5.30834C5.74168 15.8166 5.95834 15.4916 5.95834 15.1666C5.95834 14.8416 5.74168 14.5166 5.41668 14.5166H2.81668C2.49168 14.625 2.16668 14.8416 2.16668 15.1666C2.16668 15.4916 2.38334 15.8166 2.70834 15.8166ZM3.14168 19.2833C2.81668 19.5 2.70834 19.825 2.92501 20.15C3.14168 20.475 3.46668 20.5833 3.79168 20.3666C4.11668 20.15 4.22501 19.825 4.00834 19.5C3.79168 19.2833 3.46668 19.175 3.14168 19.2833ZM1.51668 16.4666C1.19168 16.6833 1.08334 17.0083 1.30001 17.3333C1.51668 17.6583 1.84168 17.7666 2.16668 17.55C2.49168 17.3333 2.60001 17.0083 2.38334 16.6833C2.16668 16.3583 1.84168 16.3583 1.51668 16.4666ZM9.53334 8.55831C9.53334 8.66664 9.42501 8.77497 9.10001 8.99164C8.88334 9.20831 8.66668 9.09997 8.55834 9.09997C8.23334 9.09997 7.90834 9.31664 7.90834 9.64164C7.90834 9.96664 8.12501 10.2916 8.45001 10.2916C8.55834 10.2916 8.66668 10.2916 8.77501 10.2916C8.99168 10.2916 9.31668 10.2916 9.75001 9.96664C10.2917 9.64164 10.5083 9.31664 10.6167 8.99164C10.725 8.66664 10.6167 8.34164 10.2917 8.2333C9.96667 8.12497 9.64167 8.23331 9.53334 8.55831ZM21.775 14.3C21.2333 14.3 20.15 13.8666 19.9333 12.4583C19.9333 11.9166 20.0417 10.8333 20.15 9.96664C20.15 9.64164 20.2583 9.31664 20.2583 9.09997C20.3667 8.01664 20.0417 6.17497 19.5 5.19997C19.0667 4.22497 18.525 3.57497 17.7667 2.92497C16.0333 1.40831 14.0833 1.08331 12.675 1.19164C11.05 1.19164 8.55834 2.38331 7.36668 3.57497C6.06668 4.98331 5.85001 6.49997 5.95834 8.34164C5.95834 8.77497 6.06668 9.09997 6.17501 9.31664C6.17501 9.53331 6.17501 9.53331 6.17501 9.64164C6.06668 10.1833 5.85001 11.1583 5.63334 11.9166L5.41668 12.675C5.20001 13.325 5.41668 13.7583 5.74168 13.8666C5.85001 14.0833 6.28334 14.3 6.93334 14.0833L7.25834 13.975C7.25834 13.975 7.36668 13.8666 7.47501 13.8666C7.47501 13.975 7.58334 14.0833 7.58334 14.1916L7.69168 14.7333L8.23334 14.625C9.10001 14.4083 9.64167 14.625 9.75001 14.95C9.85834 15.1666 9.42501 15.7083 8.66668 15.925L8.01668 16.1416L8.23334 16.6833C8.66668 17.7666 9.85834 18.2 10.8333 17.9833C11.5917 17.7666 12.7833 17.3333 13.65 17.0083C14.4083 17.55 15.925 18.6333 16.6833 19.2833L16.7917 19.3916C16.6833 19.5 16.4667 19.6083 16.25 19.7166C16.1417 19.7166 15.8167 19.825 15.3833 20.0416C14.1917 20.5833 12.4583 21.2333 11.5917 21.775C10.1833 22.75 9.53334 23.725 9.53334 24.7H10.6167C10.6167 24.1583 11.2667 23.4 12.1333 22.75C12.7833 22.3166 14.625 21.6666 15.7083 21.2333C16.1417 21.0166 16.575 20.9083 16.6833 20.8C17.225 20.5833 17.9833 20.2583 17.9833 19.3916V19.175L17.4417 18.6333C16.4667 17.875 14.7333 16.575 14.0833 16.1416L13.8667 15.925L13.5417 16.0333C12.8917 16.3583 11.4833 16.9 10.725 17.0083C10.4 17.0083 9.96667 16.9 9.64167 16.6833C10.6167 16.1416 10.9417 15.275 10.725 14.625C10.5083 13.975 9.75001 13.325 8.45001 13.5416C8.34168 13.4333 8.34168 13.325 8.34168 13.2166L8.23334 12.675L7.69168 12.7833C7.36668 12.7833 7.04168 12.8916 6.82501 13L6.60834 13.2166H6.50001C6.50001 13.1083 6.50001 13 6.50001 12.8916L6.71668 11.9166C6.93334 11.05 7.15001 10.075 7.25834 9.53331C7.25834 9.20831 7.25834 8.99164 7.15001 8.77497C7.15001 8.66664 7.04168 8.44997 7.04168 8.01664C6.93334 6.39164 7.04168 5.19997 8.12501 4.11664C9.10001 3.03331 11.375 2.05831 12.675 1.94997C13.8667 1.94997 15.4917 2.16664 17.0083 3.46664C17.6583 4.11664 18.0917 4.65831 18.525 5.52497C18.9583 6.39164 19.2833 7.90831 19.175 8.88331C19.175 9.09997 19.0667 9.42497 19.0667 9.74997C18.9583 10.725 18.7417 11.9166 18.85 12.5666C19.0667 14.5166 20.475 15.3833 21.775 15.3833L24.5917 15.275V14.1916L21.775 14.3ZM7.25834 17.225C6.93334 17.1166 6.60834 17.1166 6.39168 17.4416L5.09168 19.7166C4.87501 20.0416 4.98334 20.3666 5.30834 20.5833C5.41668 20.5833 5.52501 20.5833 5.63334 20.5833C5.85001 20.5833 6.06668 20.475 6.17501 20.3666L7.47501 18.0916C7.69168 17.7666 7.58334 17.4416 7.25834 17.225Z" fill="black"/>
</svg>
