<svg width="26" height="26" viewBox="0 0 26 26" fill="none" xmlns="http://www.w3.org/2000/svg">
<path fill-rule="evenodd" clip-rule="evenodd" d="M5.09167 11.5917V13H14.4083V5.09165H2.925V4.00832C2.925 3.35832 3.35833 2.92499 4.00833 2.92499H15.4917C16.1417 2.92499 16.575 3.35832 16.575 4.00832V6.49999H21.3417C22.5333 6.49999 23.075 7.14999 23.4 7.69165C24.05 8.66665 25.025 10.6167 25.675 11.7C25.8917 12.025 26 12.4583 26 12.7833V17.3333C26 18.525 25.2417 19.5 23.8333 19.5H23.4C23.4 21.3417 21.9917 22.75 20.15 22.75C18.3083 22.75 16.9 21.3417 16.9 19.5H12.2417C12.2417 21.3417 10.8333 22.75 8.99167 22.75C7.15 22.75 5.74167 21.3417 5.74167 19.5H4.00833C3.35833 19.5 2.925 19.0667 2.925 18.4167V11.5917H0.758333V9.42499H8.34167V11.5917H5.09167ZM8.99167 18.2C9.75 18.2 10.2917 18.7417 10.2917 19.5C10.2917 20.2583 9.75 20.8 8.99167 20.8C8.23333 20.8 7.69167 20.2583 7.69167 19.5C7.69167 18.7417 8.23333 18.2 8.99167 18.2ZM20.15 18.2C20.9083 18.2 21.45 18.7417 21.45 19.5C21.45 20.2583 20.9083 20.8 20.15 20.8C19.3917 20.8 18.85 20.2583 18.85 19.5C18.85 18.7417 19.3917 18.2 20.15 18.2ZM16.575 17.3333H17.6583C18.2 16.6833 19.0667 16.25 20.0417 16.25C21.0167 16.25 21.8833 16.6833 22.425 17.3333H23.8333V12.675L21.9917 9.20832C21.775 8.88332 21.45 8.66666 21.0167 8.66666H16.575V17.3333ZM14.4083 15.1667H5.09167V17.3333H6.5C7.04167 16.6833 7.90833 16.25 8.88333 16.25C9.85833 16.25 10.725 16.6833 11.2667 17.3333H14.3V15.1667H14.4083ZM17.6583 9.74999V13.325H22.75L21.2333 10.2917C21.0167 9.96665 20.6917 9.74999 20.2583 9.74999H17.6583ZM0 6.17499H8.66667V8.34165H0V6.17499Z" fill="black"/>
</svg>
