<svg width="26" height="26" viewBox="0 0 26 26" fill="none" xmlns="http://www.w3.org/2000/svg">
<path fill-rule="evenodd" clip-rule="evenodd" d="M18.4167 24.2667V25.35H7.58333V24.2667C9.20833 23.8334 10.1833 22.5334 10.2917 21.0167H15.7083C15.8167 22.6417 16.7917 23.9417 18.4167 24.2667ZM26 3.79169V18.85C26 19.175 25.8917 19.3917 25.675 19.6084C25.4583 19.825 25.2417 19.9334 24.9167 19.9334H1.08333C0.758333 19.9334 0.541667 19.825 0.325 19.6084C0.108333 19.5 0 19.175 0 18.85V3.79169C0 3.57502 0.108333 3.25002 0.325 3.03335C0.541667 2.81669 0.758333 2.70835 1.08333 2.70835H5.74167V0.541687H20.2583V2.70835H24.9167C25.2417 2.70835 25.4583 2.81669 25.675 3.03335C25.8917 3.25002 26 3.57502 26 3.79169ZM5.74167 4.87502H2.16667V17.875H5.74167V4.87502ZM18.85 1.95002H7.15V17.875H18.85V1.95002ZM23.8333 4.87502H20.2583V17.875H23.8333V4.87502ZM11.9167 13.5417H14.0833V10.9417H16.6833V8.77502H14.0833V6.06669H11.9167V8.66669H9.31667V10.9417H11.9167V13.5417Z" fill="black"/>
</svg>
