<svg width="26" height="26" viewBox="0 0 26 26" fill="none" xmlns="http://www.w3.org/2000/svg">
<path d="M4.33333 9.31667C4.33333 10.1833 4.98333 10.8333 5.84999 10.8333C6.71666 10.8333 7.36666 10.1833 7.36666 9.31667C7.36666 8.45001 6.71666 7.80001 5.84999 7.80001C4.98333 7.80001 4.33333 8.45001 4.33333 9.31667ZM6.28333 9.31667C6.28333 9.53334 6.06666 9.75001 5.84999 9.75001C5.63333 9.75001 5.41666 9.53334 5.41666 9.31667C5.41666 9.10001 5.63333 8.88334 5.84999 8.88334C6.06666 8.88334 6.28333 9.10001 6.28333 9.31667ZM6.71666 7.15001C7.58333 7.15001 8.23333 6.50001 8.23333 5.63334C8.23333 4.76667 7.58333 4.11667 6.71666 4.11667C5.84999 4.11667 5.19999 4.76667 5.19999 5.63334C5.19999 6.50001 5.84999 7.15001 6.71666 7.15001ZM6.71666 5.20001C6.93333 5.20001 7.14999 5.41667 7.14999 5.63334C7.14999 5.85001 6.93333 6.06667 6.71666 6.06667C6.49999 6.06667 6.28333 5.85001 6.28333 5.63334C6.28333 5.41667 6.49999 5.20001 6.71666 5.20001ZM5.84999 20.6917L7.14999 11.375H0.649994L1.94999 21.125H5.09166C5.19999 21.0167 5.30833 21.0167 5.41666 20.9083C5.52499 20.8 5.63333 20.8 5.84999 20.6917ZM2.92499 20.0417L1.94999 12.4583H5.95833L4.87499 20.0417H2.92499ZM3.79166 8.01667C4.65833 8.01667 5.30833 7.36667 5.30833 6.50001C5.30833 5.63334 4.65833 4.98334 3.79166 4.98334C2.92499 4.98334 2.27499 5.63334 2.27499 6.50001C2.27499 7.36667 2.92499 8.01667 3.79166 8.01667ZM3.79166 6.06667C4.00833 6.06667 4.22499 6.28334 4.22499 6.50001C4.22499 6.71667 4.00833 6.93334 3.79166 6.93334C3.57499 6.93334 3.35833 6.71667 3.35833 6.50001C3.35833 6.28334 3.57499 6.06667 3.79166 6.06667ZM25.35 24.05L24.4833 23.9417C24.375 23.2917 23.9417 22.75 22.8583 22.1C22.2083 21.6667 21.0167 21.2333 19.9333 20.8C19.0667 20.475 18.3083 20.15 17.7667 19.9333C17.225 19.7167 16.7917 19.175 16.6833 18.525C16.575 18.0917 16.575 17.1167 17.6583 16.25C18.2 15.7083 19.2833 15.1667 20.15 14.7333C20.3667 14.625 20.6917 14.5167 20.8 14.4083C21.5583 13.975 22.6417 12.675 23.075 11.9167C23.5083 11.1583 23.725 10.4 23.8333 9.53334C24.05 7.36667 23.075 5.85001 22.425 5.20001C21.45 4.11667 19.2833 2.92501 17.9833 2.81667C16.4667 2.60001 15.3833 3.25001 14.1917 4.22501C13.8667 4.44167 13.7583 4.65834 13.65 4.76667C13.5417 4.98334 13.325 5.20001 13 5.30834C12.5667 5.52501 11.9167 5.74167 11.2667 6.06667C10.8333 6.28334 10.4 6.39167 10.1833 6.50001H10.075L10.1833 6.60834C10.2917 6.71667 10.5083 6.82501 10.725 7.04167C10.8333 7.15001 10.9417 7.25834 11.1583 7.36667L11.4833 7.58334L11.05 8.01667C10.9417 8.12501 10.8333 8.23334 10.8333 8.23334C11.7 9.10001 11.7 10.075 11.2667 10.6167C10.8333 11.1583 9.96666 11.4833 8.88333 11.05C8.88333 11.5917 9.09999 11.9167 9.20833 12.1333C9.85833 12.675 10.9417 13.4333 11.7 13.8667L12.025 13.975V14.3C12.025 15.0583 12.025 17.225 11.9167 18.4167C11.9167 19.175 11.1583 19.6083 10.725 19.825H10.6167C10.5083 19.9333 10.075 20.0417 9.53333 20.2583C8.44999 20.6917 6.71666 21.3417 6.06666 21.775C5.52499 22.1 4.44166 22.8583 4.44166 23.8333H3.35833C3.35833 22.6417 4.22499 21.6667 5.09166 21.125H5.74166L5.84999 20.6917C6.71666 20.2583 8.12499 19.7167 9.09999 19.3917C9.64166 19.175 9.96666 19.0667 10.1833 18.9583L10.2917 18.85C10.725 18.6333 10.8333 18.525 10.8333 18.4167C10.9417 17.3333 10.9417 15.4917 10.9417 14.625C10.1833 14.1917 9.09999 13.4333 8.55833 12.8917L8.44999 12.7833C7.79999 12.025 7.58333 10.9417 8.12499 10.075L8.44999 9.53334L8.99166 9.85834C9.74999 10.4 10.2917 10.2917 10.5083 10.075C10.5083 9.75001 10.4 9.20834 9.64166 8.66667L9.09999 8.34167L9.53333 7.90834C9.64166 7.80001 9.74999 7.69167 9.74999 7.69167C9.64166 7.58334 9.53333 7.47501 9.31666 7.36667C8.77499 6.93334 8.66666 6.50001 8.66666 6.17501C8.66666 5.95834 8.88333 5.52501 9.53333 5.30834C9.74999 5.20001 10.1833 4.98334 10.6167 4.87501C11.2667 4.65834 12.025 4.33334 12.35 4.11667H12.4583L12.5667 4.00834C12.7833 3.79167 13 3.57501 13.4333 3.25001C14.8417 2.16667 16.1417 1.40834 18.0917 1.62501C19.825 1.84167 22.2083 3.25001 23.1833 4.44167C23.9417 5.30834 25.1333 7.04167 24.8083 9.64167C24.7 10.725 24.4833 11.4833 23.9417 12.4583C23.5083 13.4333 22.2083 14.8417 21.2333 15.3833C21.0167 15.4917 20.8 15.6 20.475 15.8167C19.7167 16.25 18.7417 16.7917 18.3083 17.225C17.875 17.6583 17.6583 18.0917 17.6583 18.525C17.6583 18.85 17.875 19.0667 18.0917 19.175C18.6333 19.5 19.3917 19.7167 20.15 20.0417C21.3417 20.475 22.5333 20.9083 23.1833 21.3417C24.1583 21.8833 25.2417 22.6417 25.35 24.05ZM16.0333 6.93334C16.0333 7.25834 15.8167 7.47501 15.4917 7.47501C14.7333 7.36667 13.65 6.60834 13.5417 5.74167C13.5417 5.41667 13.7583 5.20001 14.0833 5.20001C14.4083 5.20001 14.625 5.41667 14.625 5.74167C14.625 6.06667 15.0583 6.28334 15.4917 6.39167C15.8167 6.39167 16.0333 6.60834 16.0333 6.93334Z" fill="black"/>
</svg>
