<svg width="26" height="26" viewBox="0 0 26 26" fill="none" xmlns="http://www.w3.org/2000/svg">
<path d="M22.9667 13.325C22.5333 12.1334 21.6667 11.375 20.5833 11.05C20.3667 10.4 20.0417 9.85836 19.5 9.42503C18.9583 8.9917 18.3083 8.77503 17.6583 8.77503C17.4417 8.3417 17.1167 7.80003 16.7917 7.47503C16.4667 7.15003 16.0333 7.0417 15.7083 6.93336V4.7667C15.7083 3.7917 14.8417 3.03336 13.5417 3.03336H13.4333C13.2167 3.03336 13 3.03336 12.7833 3.1417V2.4917C12.7833 1.5167 11.9167 0.758364 10.6167 0.758364C9.425 0.650031 8.55834 1.40836 8.34167 2.1667C8.125 2.1667 7.90834 2.1667 7.58334 2.1667H7.475C6.39167 2.1667 5.41667 2.92503 5.41667 3.90003V4.22503C5.2 4.22503 4.98334 4.1167 4.76667 4.1167H4.55C3.46667 4.1167 2.49167 4.98336 2.49167 5.85003V19.6084C2.49167 19.6084 2.6 25.025 9.1 25.025C12.5667 25.025 14.1917 23.8334 15.0583 22.5334C15.4917 22.75 16.0333 22.8584 16.575 22.8584C17.1167 22.8584 17.6583 22.75 18.0917 22.5334C18.7417 22.2084 19.175 21.775 19.3917 21.2334C20.5833 21.0167 21.3417 20.5834 21.8833 19.9334C22.3167 19.2834 22.5333 18.4167 22.3167 17.4417C23.1833 16.3584 23.5083 14.7334 22.9667 13.325ZM9.1 23.6167C3.9 23.6167 3.9 19.825 3.79167 19.7167V5.95836C3.79167 5.85003 4.11667 5.52503 4.44167 5.52503H4.65834C4.76667 5.52503 5.30834 5.52503 5.30834 5.95836V12.7834C5.30834 13.2167 5.63334 13.4334 5.95834 13.4334C6.28334 13.4334 6.60834 13.1084 6.60834 12.7834V5.95836V3.90003C6.60834 3.7917 6.93334 3.4667 7.25834 3.4667H7.58334C8.01667 3.4667 8.23334 3.68336 8.23334 3.90003V12.2417C8.23334 12.675 8.55834 12.8917 8.88334 12.8917C9.20834 12.8917 9.75 12.675 9.75 12.2417V3.90003V2.4917C9.75 2.38336 10.075 2.05836 10.6167 2.05836C11.05 2.05836 11.375 2.27503 11.375 2.4917V11.9167C11.375 12.35 11.7 12.5667 12.025 12.5667C12.35 12.5667 12.675 12.2417 12.675 11.9167V4.7667C12.675 4.65836 13 4.33336 13.325 4.33336H13.4333C13.8667 4.33336 14.0833 4.55003 14.0833 4.7667V15.925C14.0833 16.25 14.3 16.4667 14.5167 16.575C14.7333 16.6834 15.0583 16.6834 15.275 16.4667C15.7083 16.0334 16.1417 15.6 16.575 15.1667C17.225 14.5167 17.7667 13.8667 18.2 13.7584C18.6333 13.65 18.9583 13.7584 19.0667 13.975C19.0667 14.0834 19.0667 14.1917 18.85 14.4084C18.525 14.8417 18.0917 15.4917 17.55 16.25C16.575 17.6584 15.275 19.3917 14.625 20.475C13.8667 22.1 13 23.6167 9.1 23.6167ZM21.125 16.7917L20.9083 17.1167L21.0167 17.4417C21.125 17.9834 21.2333 18.6334 20.9083 19.0667C20.475 19.6084 19.6083 19.825 18.9583 19.825H18.4167L18.3083 20.3667C18.3083 20.6917 17.9833 20.9084 17.6583 21.125C17.225 21.3417 16.6833 21.3417 16.0333 21.2334C16.0333 21.2334 16.0333 21.2334 16.0333 21.125C16.6833 20.0417 17.875 18.3084 18.85 17.0084C19.3917 16.25 19.9333 15.6 20.15 15.1667C20.9083 14.1917 20.5833 13.4334 20.3667 13.1084C19.9333 12.4584 19.0667 12.1334 18.0917 12.35C17.225 12.5667 16.4667 13.325 15.7083 14.1917V8.45003C15.8167 8.45003 15.925 8.55836 15.925 8.55836C16.25 8.88336 16.4667 9.20836 16.4667 9.53336V10.2917L17.225 10.1834C17.7667 10.075 18.3083 10.2917 18.7417 10.6167C18.9583 10.8334 19.2833 11.1584 19.3917 11.7L19.5 12.2417L20.0417 12.35C21.2333 12.5667 21.6667 13.2167 21.8833 13.8667C21.9917 14.8417 21.775 16.0334 21.125 16.7917ZM16.4667 6.60836C17.4417 6.93336 18.2 7.6917 18.525 8.6667C18.85 7.6917 19.6083 6.93336 20.5833 6.60836C19.6083 6.28336 18.85 5.52503 18.525 4.55003C18.2 5.52503 17.4417 6.28336 16.4667 6.60836ZM21.5583 6.60836C22.2083 6.82503 22.75 7.3667 22.9667 8.0167C23.1833 7.3667 23.725 6.82503 24.375 6.60836C23.725 6.3917 23.1833 5.85003 22.9667 5.20003C22.75 5.85003 22.2083 6.3917 21.5583 6.60836ZM20.9083 1.40836C20.5833 2.38336 19.825 3.1417 18.85 3.4667C19.825 3.7917 20.5833 4.55003 20.9083 5.52503C21.2333 4.55003 21.9917 3.7917 22.9667 3.4667C21.9917 3.1417 21.125 2.38336 20.9083 1.40836Z" fill="black"/>
</svg>
