<svg width="26" height="26" viewBox="0 0 26 26" fill="none" xmlns="http://www.w3.org/2000/svg">
<path fill-rule="evenodd" clip-rule="evenodd" d="M24.4833 21.3417L20.6917 10.5083V9.20834C20.6917 8.55834 20.2583 7.90834 19.6083 7.69167V7.25834C19.6083 6.71667 19.2833 6.39167 18.85 6.175V5.85H20.15C20.5833 5.85 20.8 5.525 20.8 5.2V3.25C20.8 2.925 20.6917 2.70834 20.3667 2.6L17.7667 1.73334C17.6583 1.73334 17.6583 1.73334 17.55 1.73334H13.325C13 1.73334 12.675 2.05834 12.675 2.38334V2.49167H11.8083C11.4833 2.49167 11.1583 2.81667 11.1583 3.14167V4.55C11.1583 4.98334 11.4833 5.2 11.9167 5.2H12.7833V5.41667C12.7833 5.74167 13.1083 6.06667 13.4333 6.06667H13.975C13.2167 6.825 12.4583 8.23334 12.1333 9.85834C12.025 10.1833 12.35 10.5083 12.675 10.5083H12.7833C13.1083 10.5083 13.4333 10.2917 13.4333 9.96667C13.7583 8.01667 15.0583 6.5 15.6 5.95834H15.7083L15.8167 6.5C15.6 6.71667 15.3833 7.04167 15.275 7.25834C15.275 7.25834 15.275 7.36667 15.275 7.475V7.90834C14.625 8.125 14.1917 8.66667 14.1917 9.425V10.8333L12.35 16.1417C11.4833 15.8167 10.8333 15.7083 10.075 15.7083C9.31667 15.7083 8.66667 15.8167 8.01667 16.1417L6.175 16.9V14.95H1.73334V24.5917H6.06667V23.1833C7.475 23.2917 9.31667 23.5083 12.2417 24.375C12.7833 24.4833 13.2167 24.5917 13.65 24.5917C14.625 24.5917 15.4917 24.2667 16.25 23.5083C16.4667 23.4 17.0083 22.8583 17.7667 22.2083H23.8333C24.05 22.2083 24.2667 22.1 24.375 21.8833C24.4833 21.775 24.5917 21.5583 24.4833 21.3417ZM12.5667 3.79167H12.2417V3.575H12.5667V3.79167ZM5.09167 23.5083H2.81667V16.0333H5.09167V23.5083ZM15.7083 4.44167H14.95H13.7583V3.03334V2.925H17.3333L19.5 3.575V4.55C19.3917 4.55 18.2 4.55 18.2 4.55C17.875 4.55 17.55 4.875 17.55 5.2V5.85H16.7917L16.3583 4.875C16.25 4.65834 15.925 4.44167 15.7083 4.44167ZM18.3083 7.25834V7.58334H16.1417V7.25834C16.1417 7.25834 16.1417 7.15 16.25 7.15H18.2C18.2 7.15 18.3083 7.15 18.3083 7.25834ZM15.0583 9.20834C15.0583 8.99167 15.1667 8.775 15.3833 8.775H19.0667C19.3917 8.775 19.3917 8.99167 19.3917 9.20834V10.075H15.0583V9.20834ZM15.275 11.4833H20.0417L21.6667 16.1417C21.5583 16.0333 21.3417 15.925 21.2333 15.8167C21.0167 15.7083 20.8 15.6 20.475 15.6C20.0417 15.6 19.6083 15.7083 19.175 16.0333C19.175 16.0333 17.225 17.4417 16.0333 18.4167C15.925 17.7667 15.3833 17.225 14.7333 17.0083C14.3 16.9 13.8667 16.6833 13.5417 16.575L15.275 11.4833ZM15.6 22.6417C14.4083 23.725 13.4333 23.5083 12.5667 23.2917C10.9417 22.8583 8.45 22.2083 6.175 22.1C6.175 22.1 6.175 17.9833 6.39167 17.875C7.15 17.6583 8.01667 17.3333 8.66667 17.0083C10.075 16.4667 11.05 16.7917 12.4583 17.225C13.975 17.7667 13.8667 17.7667 14.5167 17.9833C15.4917 18.2 15.1667 19.5 14.0833 19.175C13.4333 18.9583 12.1333 18.7417 11.7 18.6333C10.9417 18.4167 10.725 19.2833 11.375 19.5C12.35 19.7167 14.3 20.2583 14.7333 20.2583C15.1667 20.2583 15.4917 20.0417 15.925 19.7167C16.6833 19.175 19.825 16.6833 19.825 16.6833C20.6917 15.925 21.775 17.0083 20.9083 17.875C18.525 20.0417 17.0083 21.3417 15.6 22.6417ZM18.7417 21.3417C19.7167 20.3667 20.9083 19.3917 21.5583 18.7417C21.8833 18.4167 22.1 17.9833 22.2083 17.55L23.5083 21.3417H18.7417ZM9.64167 14.5167C9.75 14.5167 9.75 14.5167 9.85834 14.5167C10.9417 14.4083 11.4833 13.1083 11.4833 11.9167C11.4833 11.1583 11.1583 10.6167 10.8333 10.075C10.6167 9.75 10.5083 9.425 10.4 9.20834C10.2917 8.66667 10.2917 8.125 10.2917 8.01667C10.2917 7.8 10.1833 7.58334 9.96667 7.475H9.85834C9.53334 7.475 9.31667 7.8 9.31667 8.01667C9.31667 8.01667 9.31667 8.45 9.20834 9.20834C8.99167 9.53334 8.775 9.75 8.55834 10.075C8.23334 10.6167 7.90834 11.1583 7.90834 11.9167C7.90834 13.2167 8.45 14.4083 9.64167 14.5167ZM9.53334 10.6167C9.64167 10.5083 9.64167 10.4 9.75 10.2917C9.75 10.4 9.85834 10.5083 9.85834 10.6167C10.075 11.05 10.4 11.4833 10.4 11.9167C10.4 12.675 10.075 13.325 9.75 13.325C9.425 13.325 9.1 12.5667 9.1 11.8083C9.1 11.375 9.31667 11.05 9.53334 10.6167Z" fill="black"/>
</svg>
