<svg width="26" height="26" viewBox="0 0 26 26" fill="none" xmlns="http://www.w3.org/2000/svg">
<path fill-rule="evenodd" clip-rule="evenodd" d="M23.2917 7.14999V23.075H24.9167V24.9167H1.08334V23.075H2.70834V7.14999C2.70834 7.14999 6.17501 7.14999 7.58334 7.14999C8.12501 9.74999 10.4 11.7 13.1083 11.5917C15.8167 11.5917 18.0917 9.53333 18.525 7.04166C19.9333 7.14999 23.2917 7.14999 23.2917 7.14999ZM6.06668 19.5H8.01668V17.55H6.06668V19.5ZM9.96668 19.5H11.9167V17.55H9.96668V19.5ZM13.975 19.5H15.925V17.55H13.975V19.5ZM17.9833 19.5H19.9333V17.55H17.9833V19.5ZM6.06668 15.925H8.01668V13.975H6.06668V15.925ZM9.96668 15.925H11.9167V13.975H9.96668V15.925ZM13.975 15.925H15.925V13.975H13.975V15.925ZM17.9833 15.925H19.9333V13.975H17.9833V15.925ZM13 1.40833C10.4 1.40833 8.34168 3.46666 8.34168 6.06666C8.34168 8.66666 10.4 10.725 13 10.725C15.6 10.725 17.6583 8.66666 17.6583 6.06666C17.6583 3.57499 15.6 1.40833 13 1.40833ZM15.8167 7.04166H13.975V8.88333H12.1333V7.04166H10.1833V5.19999H12.025V3.24999H13.8667V5.09166H15.7083V7.04166H15.8167Z" fill="black"/>
</svg>
