<svg width="26" height="26" viewBox="0 0 26 26" fill="none" xmlns="http://www.w3.org/2000/svg">
<path d="M20.8 6.71669L16.7917 6.39169C16.0333 6.39169 15.6 6.17502 15.0583 5.95835C14.625 5.74169 13.975 5.41669 13.1083 5.41669C12.1333 5.41669 11.5917 5.74169 11.05 5.95835C10.5083 6.17502 10.075 6.39169 9.425 6.39169L5.30834 6.71669C3.575 6.82502 1.73334 8.66669 1.73334 11.4834C1.73334 14.4084 3.575 16.3584 5.2 16.7917C6.06667 17.7667 9.1 19.2834 13 19.2834C17.0083 19.2834 19.7167 17.875 20.6917 16.7917L20.8 16.6834C22.3167 16.25 24.1583 14.4084 24.1583 11.4834C24.2667 8.66669 22.5333 6.82502 20.8 6.71669ZM2.81667 11.4834C2.81667 9.10002 4.33334 7.90835 5.30834 7.80002V15.6C4.225 15.1667 2.81667 13.8667 2.81667 11.4834ZM19.7167 16.25C18.9583 16.9 16.6833 18.2 13 18.2C9.64167 18.2 7.58334 17.0084 6.28334 16.1417V7.80002L9.31667 7.47502C10.1833 7.47502 10.725 7.25835 11.2667 6.93335C11.9167 6.71669 12.35 6.50002 13.1083 6.50002C13.7583 6.50002 14.1917 6.71669 14.7333 6.93335C15.275 7.15002 15.925 7.47502 16.9 7.47502L19.825 7.80002V16.1417L19.7167 16.25ZM20.8 15.6V7.80002C21.775 7.90835 23.075 9.20835 23.075 11.4834C23.1833 13.8667 21.775 15.0584 20.8 15.6ZM16.3583 8.77502C17.6583 8.99169 18.3083 9.10002 18.3083 9.10002C18.6333 9.20835 18.7417 9.42502 18.7417 9.75002C18.7417 9.96669 18.4167 10.1834 18.2 10.1834H18.0917C18.0917 10.1834 17.55 10.075 16.25 9.85835C15.4917 9.75002 15.0583 9.53335 14.625 9.31669C14.1917 9.10002 13.7583 8.88335 13.1083 8.88335C12.4583 8.88335 12.1333 9.10002 11.7 9.31669C11.2667 9.53335 10.725 9.75002 10.075 9.85835C8.88334 10.075 8.125 10.1834 8.125 10.1834C7.8 10.1834 7.58334 10.075 7.475 9.75002C7.36667 9.42502 7.58334 9.20835 7.90834 9.10002C7.90834 9.10002 8.66667 8.99169 9.96667 8.77502C10.4 8.66669 10.725 8.55835 11.1583 8.34169C11.7 8.12502 12.2417 7.80002 13.1083 7.80002C13.975 7.80002 14.5167 8.01669 15.0583 8.34169C15.3833 8.55835 15.7083 8.66669 16.3583 8.77502ZM16.4667 12.35C16.4667 12.675 16.25 12.8917 15.925 12.8917H9.85834C9.53334 12.8917 9.31667 12.675 9.31667 12.35C9.31667 12.025 9.53334 11.8084 9.85834 11.8084H15.925C16.25 11.8084 16.4667 12.1334 16.4667 12.35ZM14.625 14.8417C14.625 15.1667 14.4083 15.3834 14.0833 15.3834H11.5917C11.2667 15.3834 11.05 15.1667 11.05 14.8417C11.05 14.5167 11.2667 14.3 11.5917 14.3H14.0833C14.4083 14.3 14.625 14.5167 14.625 14.8417Z" fill="black"/>
</svg>
