<svg width="26" height="26" viewBox="0 0 26 26" fill="none" xmlns="http://www.w3.org/2000/svg">
<path d="M21.5583 18.0917L20.6917 17.875C18.85 17.4417 17.3333 17.1167 17.0083 16.25L16.7917 15.7084C17.4417 15.1667 18.2 14.4084 18.7417 13.325C20.15 12.675 20.8 11.2667 20.8 10.1834C20.8 8.88336 20.2583 7.69169 19.0667 7.58336C18.85 5.09169 17.3333 2.70836 15.0583 2.05836C14.5167 1.95002 13.325 2.05836 14.3 0.650024C11.1583 0.650024 7.36666 3.68336 7.04166 7.58336C5.74166 7.80002 5.2 8.88336 5.2 10.2917C5.2 11.375 5.84999 12.8917 7.25833 13.4334C7.90833 14.5167 8.55833 15.275 9.31666 15.925L9.09999 16.575C8.77499 17.3334 6.93333 17.7667 5.09166 18.2L4.54999 18.3084C1.29999 19.0667 1.08333 20.8 1.08333 23.4V25.2417H24.8083V23.4C24.9167 20.5834 24.7 18.9584 21.5583 18.0917ZM18.7417 8.99169C18.85 8.99169 18.9583 8.99169 19.175 8.99169C19.825 9.42502 19.7167 11.7 18.2 12.2417C18.0917 12.2417 17.875 12.4584 17.875 12.5667C17.6583 12.8917 17.4417 13.2167 17.225 13.5417C16.9 13.65 16.4667 13.8667 16.0333 13.975C16.4667 12.7834 16.7917 11.5917 17.0083 10.4C17.7667 9.85836 18.4167 9.42502 18.7417 8.99169ZM8.23333 8.45003C8.23333 7.80002 8.34166 6.50002 8.55833 5.95836C9.20833 4.33336 10.5083 6.82503 13 6.82503C15.4917 6.82503 16.7917 4.33336 17.4417 5.95836C17.6583 6.50002 17.7667 7.69169 17.7667 8.45003C17.3333 8.88336 15.0583 10.4 13 10.4C10.9417 10.4 8.66666 8.88336 8.23333 8.45003ZM10.8333 15.275C11.5917 15.3834 12.35 15.4917 13 15.4917C13.7583 15.4917 14.5167 15.3834 15.1667 15.275C14.1917 15.8167 13.325 15.8167 13 15.8167C12.5667 15.925 11.8083 15.8167 10.8333 15.275ZM8.23333 12.5667C8.12499 12.4584 8.01666 12.35 7.90833 12.2417C6.28333 11.7 6.28333 9.42502 6.93333 8.99169C7.04166 8.88336 7.25833 8.88336 7.36666 8.99169C7.58333 9.42502 8.23333 9.96669 9.09999 10.4C9.31666 11.7 9.64166 12.8917 10.075 13.975C9.64166 13.8667 9.20833 13.65 8.88333 13.5417C8.66666 13.325 8.44999 13 8.23333 12.5667ZM23.2917 23.5084H2.59999V23.1834C2.59999 20.9084 2.81666 20.0417 4.87499 19.6084L5.63333 19.3917C7.90833 18.85 9.74999 18.525 10.5083 17.0084L10.725 16.6834C11.7 17.1167 12.5667 17.225 13 17.225C13.4333 17.225 14.3 17.1167 15.3833 16.6834L15.6 17.1167C16.25 18.6334 18.0917 19.0667 20.3667 19.5L21.125 19.6084C23.2917 20.0417 23.2917 20.8 23.2917 23.1834V23.5084ZM15.0583 9.85836C15.4917 9.85836 15.8167 9.42502 15.8167 8.88336C15.8167 8.34169 15.4917 7.90836 15.0583 7.90836C14.625 7.90836 14.3 8.34169 14.3 8.88336C14.3 9.42502 14.625 9.85836 15.0583 9.85836ZM10.9417 7.90836C11.375 7.90836 11.7 8.34169 11.7 8.88336C11.7 9.42502 11.375 9.85836 10.9417 9.85836C10.5083 9.85836 10.1833 9.42502 10.1833 8.88336C10.1833 8.34169 10.5083 7.90836 10.9417 7.90836Z" fill="black"/>
</svg>
