<svg width="26" height="26" viewBox="0 0 26 26" fill="none" xmlns="http://www.w3.org/2000/svg">
<path d="M23.8842 12.1326L19.0523 8.64607L18.7639 8.42588L18.1509 7.98548L13.355 4.49899C11.8766 3.50809 10.0376 4.02189 8.81159 5.78348C7.91012 7.06798 7.76588 8.46257 8.30676 9.56357C8.48706 9.93057 8.77553 10.2976 9.10006 10.5545L9.96548 11.1784L9.064 11.5821L8.34282 11.9124L8.05435 12.0225L2.64551 14.4447C1.05891 15.2888 0.554088 17.1604 1.4195 19.1422C2.24886 21.0506 3.97969 21.9681 5.60234 21.3442L11.0112 18.922L11.3357 18.7752L12.0208 18.4816L16.9249 16.2796L19.6653 18.2614C21.1438 19.2523 22.9828 18.7385 24.2088 16.9769C25.3627 15.2154 25.2545 13.2336 23.8842 12.1326ZM10.1097 9.89387C8.91977 9.01307 8.95583 7.83868 9.8573 6.51748C10.7948 5.19629 11.9487 4.86599 13.0665 5.67338L17.6821 9.01307L17.2854 9.56357C16.8167 9.23327 16.3119 9.01307 15.771 8.97637C15.3743 8.93967 14.9416 9.01307 14.5089 9.15987L11.1915 10.6646L10.1097 9.89387ZM16.5643 15.1053L15.8431 15.4356L11.4078 17.4173L9.35247 12.6831L11.0112 11.9491L12.2011 11.3986L14.5089 10.371C15.3022 10.004 15.9873 10.1141 16.5643 10.5545C16.9249 10.8481 17.2494 11.2885 17.5018 11.8757C18.1509 13.3437 17.8263 14.5548 16.5643 15.1053Z" fill="black"/>
</svg>
