<svg width="26" height="26" viewBox="0 0 26 26" fill="none" xmlns="http://www.w3.org/2000/svg">
<path fill-rule="evenodd" clip-rule="evenodd" d="M19.5 17.3L20.3 17.5C23.1 18.3 23.3 19.8 23.2 22.2V25H2V22.2C2 19.9 2.2 18.4 5.1 17.7H5.5C7.2 17.3 8.8 16.9 9.1 16.2L9.3 15.6C8.7 15 8.1 14.4 7.5 13.4C6.3 12.9 5.7 11.6 5.7 10.6C5.7 9.3 6.2 8.3 7.3 8.1C7.6 4.7 11 2 13.8 2C13.1114 3.119 13.7564 3.20071 14.2683 3.26554C14.3511 3.27603 14.4304 3.28608 14.5 3.3C16.6 3.8 17.9 6 18.1 8.2C19.1 8.3 19.6 9.3 19.6 10.5C19.6 11.4 19 12.7 17.7 13.2C17.3 14.1 16.6 14.8 16 15.3L16.2 15.8C16.4816 16.551 17.7328 16.8614 19.2087 17.2275C19.3049 17.2514 19.4021 17.2755 19.5 17.3ZM17.8 9.4L16.9 9.7V8.9C16.9 8.2 16.8 7.2 16.7 6.7C16.3811 5.95588 15.9209 6.22879 15.2144 6.64782C14.5917 7.01715 13.7775 7.5 12.7 7.5C11.6303 7.5 10.8202 7.00251 10.1992 6.62117C9.48497 6.18257 9.02095 5.89762 8.7 6.7C8.5 7.2 8.4 8.3 8.4 8.9V9.7L7.6 9.4C7.5 9.3 7.3 9.3 7.2 9.4C6.6 9.8 6.6 11.8 8.2 12.3L8.5 12.6C8.7 13 8.9 13.3 9.1 13.5C9.6 14.1 10.1 14.7 10.8 15C11.6 15.5 12.3 15.6 12.7 15.5C13 15.5 13.7 15.5 14.6 15C15.4 14.6 16.1 13.9 16.4 13.5L17 12.6C17 12.5 17.2 12.3 17.3 12.3C18.7 11.8 18.8 9.8 18.2 9.4H17.8ZM3.4 23.5H21.8H21.9V22.1C21.9 20 21.9 19.3 20 18.9L19.3 18.8L19.2768 18.7956C17.1882 18.3978 15.5978 18.0949 15 16.7L14.8 16.3C13.9 16.7 13.1 16.8 12.7 16.8C12.3 16.8 11.6 16.7 10.7 16.3L10.5 16.6C9.86472 17.7798 8.40582 18.136 6.64653 18.5655C6.46729 18.6092 6.28493 18.6538 6.1 18.7L5.4 18.9C3.6 19.3 3.4 20.1 3.4 22.1V23.5ZM15.2 9.3C15.2 9.8 14.9 10.2 14.5 10.2C14.1 10.2 13.8 9.8 13.8 9.3C13.8 8.8 14.1 8.4 14.5 8.4C14.9 8.4 15.2 8.8 15.2 9.3ZM11.5 9.3C11.5 8.8 11.2 8.4 10.8 8.4C10.4 8.4 10.1 8.8 10.1 9.3C10.1 9.8 10.4 10.2 10.8 10.2C11.2 10.2 11.5 9.8 11.5 9.3ZM18.4 20.4H19.7V21.8H18.4V23.2H16.9V21.8H15.6V20.4H16.9V19H18.4V20.4Z" fill="black"/>
</svg>
