<svg width="26" height="26" viewBox="0 0 26 26" fill="none" xmlns="http://www.w3.org/2000/svg">
<path d="M12.025 2.70836C12.025 1.51669 13 0.650024 14.0833 0.650024C15.275 0.650024 16.1417 1.62502 16.1417 2.70836C16.1417 3.90002 15.1667 4.76669 14.0833 4.76669C13 4.76669 12.025 3.90002 12.025 2.70836ZM16.3583 5.30836H11.9167C10.4 5.30836 9.20834 6.50002 9.20834 7.90836V10.4L6.71667 12.8917C6.60834 13 6.50001 13.2167 6.50001 13.4334C6.06667 13.7584 5.85001 14.3 5.85001 14.8417V24.8084C5.85001 25.1334 6.06667 25.35 6.39167 25.35C6.71667 25.35 6.93334 25.1334 6.93334 24.8084V14.8417C6.93334 14.625 7.04167 14.5167 7.15001 14.4084C7.47501 14.5167 7.80001 14.4084 8.01667 14.1917C8.23334 14.3 8.45001 14.5167 8.45001 14.8417C8.45001 15.1667 8.66667 15.3834 8.99167 15.3834C9.31667 15.3834 9.53334 15.1667 9.53334 14.8417C9.53334 14.3 9.20834 13.7584 8.77501 13.4334L10.5083 11.7L11.05 11.1584V10.4V8.55836H11.4833C11.4833 8.55836 11.4833 23.075 11.4833 24.05C11.4833 24.7 12.025 25.2417 12.675 25.2417C13.325 25.2417 13.8667 24.7 13.8667 24.05V14.8417H14.4083V24.05C14.4083 24.7 14.95 25.2417 15.6 25.2417C16.25 25.2417 16.7917 24.7 16.7917 24.05V8.55836H17.225V13.975C17.225 14.5167 17.6583 14.8417 18.0917 14.8417C18.6333 14.8417 18.9583 14.4084 18.9583 13.975V7.90836C18.9583 6.50002 17.7667 5.30836 16.3583 5.30836Z" fill="black"/>
</svg>
