<svg width="26" height="26" viewBox="0 0 26 26" fill="none" xmlns="http://www.w3.org/2000/svg">
<g clip-path="url(#clip0)">
<path d="M3.68335 7.25832C4.44168 7.25832 5.09168 6.60832 5.09168 5.84998C5.09168 5.09165 4.44168 4.44165 3.68335 4.44165C2.92501 4.44165 2.27501 5.09165 2.27501 5.84998C2.27501 6.60832 2.92501 7.25832 3.68335 7.25832ZM1.51668 9.96665H1.84168C1.84168 9.96665 1.84168 20.0416 1.84168 20.8C1.84168 21.2333 2.16668 21.6666 2.70835 21.6666C3.25001 21.6666 3.57501 21.3417 3.57501 20.8V14.4083H3.90001V20.8C3.90001 21.2333 4.22501 21.6666 4.76668 21.6666C5.30835 21.6666 5.63335 21.3417 5.63335 20.8V9.96665H5.95835V13.7583C5.95835 14.0833 6.28335 14.4083 6.60835 14.4083C6.93335 14.4083 7.25835 14.0833 7.25835 13.7583V9.53332C7.25835 8.55832 6.39168 7.69165 5.41668 7.69165H2.16668C1.08335 7.69165 0.325012 8.55832 0.325012 9.53332V13.7583C0.325012 14.0833 0.650012 14.4083 0.975012 14.4083C1.30001 14.4083 1.62501 14.0833 1.62501 13.7583L1.51668 9.96665ZM22.3167 7.25832C23.075 7.25832 23.725 6.60832 23.725 5.84998C23.725 5.09165 23.075 4.44165 22.3167 4.44165C21.5583 4.44165 20.9083 5.09165 20.9083 5.84998C20.9083 6.60832 21.5583 7.25832 22.3167 7.25832ZM20.2583 9.96665H20.5833C20.5833 9.96665 20.5833 20.0416 20.5833 20.8C20.5833 21.2333 20.9083 21.6666 21.45 21.6666C21.8833 21.6666 22.3167 21.3417 22.3167 20.8V14.4083H22.6417V20.8C22.6417 21.2333 22.9667 21.6666 23.5083 21.6666C24.05 21.6666 24.375 21.3417 24.375 20.8V9.96665H24.7V13.7583C24.7 14.0833 25.025 14.4083 25.35 14.4083C25.675 14.4083 26 14.0833 26 13.7583V9.53332C26 8.55832 25.1333 7.69165 24.1583 7.69165H21.0167C19.9333 7.69165 19.175 8.55832 19.175 9.53332V13.7583C19.175 14.0833 19.5 14.4083 19.825 14.4083C20.15 14.4083 20.475 14.0833 20.475 13.7583V9.96665H20.2583ZM15.0583 15.8166L14.3 14.95L16.0333 13.5416H9.96668L11.7 14.95L10.9417 15.8166L7.47501 13L10.8333 10.1833L11.5917 11.05L9.85835 12.4583H16.0333L14.3 11.05L15.0583 10.1833L18.4167 13L15.0583 15.8166Z" fill="black"/>
</g>
<defs>
<clipPath id="clip0">
<rect width="26" height="26" fill="white"/>
</clipPath>
</defs>
</svg>
