<svg width="26" height="26" viewBox="0 0 26 26" fill="none" xmlns="http://www.w3.org/2000/svg">
<path d="M13 1.08331L0 13.1083H3.25V24.9166H22.75V13.1083H26L13 1.08331ZM20.9083 23.075H5.09167V10.725L13 3.79165L20.9083 10.725V23.075ZM21.6667 7.69165L18.4167 4.44165V2.16665H21.6667V7.69165ZM7.475 14.1916C7.475 14.0833 7.475 13.975 7.36667 13.975C7.36667 13.975 7.25833 13.8666 7.15 13.8666C7.04167 13.8666 6.93333 13.7583 6.825 13.7583C6.71667 13.7583 6.60833 13.65 6.5 13.65C6.39167 13.65 6.39167 13.7583 6.28333 13.7583C6.175 13.7583 6.06667 13.5416 6.06667 13.4333C5.95833 13.325 5.95833 13.2166 5.95833 13C5.95833 12.7833 5.95833 12.675 6.06667 12.5666C6.175 12.4583 6.175 12.35 6.28333 12.2416C6.39167 12.1333 6.5 12.025 6.71667 12.025C6.825 11.9166 7.04167 11.9166 7.25833 11.9166C7.475 11.9166 7.58333 11.9166 7.8 11.9166C8.01667 11.9166 8.23333 12.025 8.34167 12.1333L8.01667 12.8916C7.90833 12.7833 7.8 12.7833 7.69167 12.675C7.58333 12.675 7.475 12.5666 7.36667 12.5666C7.25833 12.5666 7.15 12.5666 7.04167 12.675C6.93333 12.7833 6.93333 12.7833 6.93333 12.8916C6.93333 13 6.93333 13 7.04167 13L7.15 13.1083C7.25833 13.1083 7.25833 13.1083 7.36667 13.2166C7.475 13.2166 7.475 13.2166 7.58333 13.325C7.90833 13.4333 8.125 13.5416 8.23333 13.7583C8.34167 13.975 8.55833 14.0833 8.55833 14.3C8.55833 14.5166 8.55833 14.625 8.45 14.7333C8.34167 14.8416 8.34167 14.95 8.125 15.0583C8.01667 15.1666 7.8 15.275 7.69167 15.275C7.475 15.3833 7.25833 15.3833 7.04167 15.3833C6.60833 15.3833 6.175 15.275 5.74167 14.95L6.175 14.1916C6.28333 14.3 6.5 14.4083 6.60833 14.4083C6.71667 14.5166 6.93333 14.5166 7.04167 14.5166C7.15 14.5166 7.36667 14.5166 7.36667 14.4083C7.475 14.3 7.475 14.3 7.475 14.1916ZM10.2917 12.7833H9.425V12.025H12.025V12.7833H11.2667V15.4916H10.2917V12.7833ZM13.65 15.4916L13.8667 14.8416H15.275L15.3833 15.4916H16.4667L15.0583 12.025H13.975L12.5667 15.4916H13.65ZM14.5167 13L14.95 14.0833H14.0833L14.5167 13ZM18.0917 13.7583L16.6833 12.025H17.875L18.525 13L19.175 12.025H20.3667L18.9583 13.7583V15.3833H17.9833L18.0917 13.7583ZM7.8 16.9H8.66667V20.3666H7.8V18.9583H6.5V20.3666H5.63333V16.9H6.5V18.2H7.8V16.9ZM12.5667 17.225C12.35 17.0083 12.1333 16.9 11.9167 16.7916C11.7 16.6833 11.4833 16.6833 11.1583 16.6833C10.8333 16.6833 10.6167 16.6833 10.4 16.7916C10.075 16.9 9.96667 17.0083 9.75 17.225C9.53333 17.3333 9.425 17.55 9.31667 17.7666C9.20833 17.9833 9.20833 18.3083 9.20833 18.525C9.20833 18.85 9.20833 19.0666 9.31667 19.2833C9.425 19.5 9.53333 19.6083 9.75 19.825C9.96667 20.0416 10.1833 20.15 10.4 20.2583C10.6167 20.3666 10.8333 20.3666 11.1583 20.3666C11.375 20.3666 11.7 20.3666 11.9167 20.2583C12.2417 20.15 12.35 20.0416 12.5667 19.825C12.7833 19.7166 12.8917 19.5 13 19.2833C13.1083 19.0666 13.1083 18.7416 13.1083 18.525C13.1083 18.2 13.1083 17.9833 13 17.7666C12.8917 17.55 12.7833 17.4416 12.5667 17.225ZM11.9167 18.85C11.8083 18.9583 11.8083 19.0666 11.7 19.175C11.5917 19.2833 11.4833 19.3916 11.375 19.3916C11.2667 19.5 11.1583 19.5 11.05 19.5C10.9417 19.5 10.8333 19.3916 10.725 19.3916C10.6167 19.2833 10.5083 19.2833 10.4 19.175C10.2917 19.0666 10.1833 18.9583 10.1833 18.85C10.075 18.7416 10.075 18.6333 10.075 18.525C10.075 18.4166 10.1833 18.3083 10.1833 18.2C10.2917 18.0916 10.2917 17.9833 10.4 17.875C10.5083 17.7666 10.6167 17.6583 10.725 17.6583C10.8333 17.55 10.9417 17.55 11.05 17.55C11.1583 17.55 11.2667 17.6583 11.375 17.6583C11.4833 17.7666 11.5917 17.7666 11.7 17.875C11.8083 17.9833 11.9167 18.0916 11.9167 18.2C12.025 18.3083 12.025 18.4166 12.025 18.525C12.025 18.6333 11.9167 18.7416 11.9167 18.85ZM17.1167 16.7916L17.6583 20.2583H16.7917L16.4667 18.3083L15.7083 20.2583H15.3833L14.625 18.3083L14.3 20.2583H13.5417L14.0833 16.7916H14.95L15.6 18.6333L16.25 16.7916H17.1167ZM18.2 16.7916H20.15V17.6583H19.0667V18.2H20.0417V18.9583H19.0667V19.5H20.15V20.2583H18.2V16.7916Z" fill="black"/>
</svg>
