<svg width="26" height="26" viewBox="0 0 26 26" fill="none" xmlns="http://www.w3.org/2000/svg">
<path d="M22.75 3.14169C21.125 1.51669 19.0667 0.975021 18.4167 1.62502L10.8333 9.20835L7.25832 16.575L2.81666 21.0167C2.38332 21.45 2.38332 22.1 3.14166 22.75C3.89999 23.5084 4.54999 23.5084 4.87499 23.075L9.31666 18.6334L16.6833 15.0584L24.2667 7.47502C24.9167 6.82502 24.375 4.76669 22.75 3.14169ZM13.1083 12.8917C12.7833 12.5667 12.7833 12.1334 13.1083 11.8084C13.4333 11.4834 13.8667 11.4834 14.1917 11.8084C14.5167 12.1334 14.5167 12.5667 14.1917 12.8917C13.8667 13.2167 13.4333 13.2167 13.1083 12.8917ZM17.55 11.5917C16.9 12.2417 15.7083 12.025 14.8417 11.1584C13.975 10.2917 13.7583 9.10002 14.4083 8.45002L18.3083 4.55002C18.9583 3.90002 20.15 4.11669 21.0167 4.98335C21.8833 5.85002 22.1 7.04169 21.45 7.69169L17.55 11.5917Z" fill="black"/>
</svg>
