<svg width="26" height="26" viewBox="0 0 26 26" fill="none" xmlns="http://www.w3.org/2000/svg">
<path d="M19.825 11.9167C19.2833 11.1584 18.6333 10.725 17.9833 10.6167V8.88336C17.9833 8.34169 17.0083 6.60836 16.6833 5.85002H18.2V0.650024H16.7917V4.44169H9.42501V0.650024H8.01667V5.85002H9.42501C8.99167 6.93336 8.12501 8.99169 8.12501 9.31669V10.5084H8.01667C7.25834 10.6167 6.50001 11.05 5.95834 11.9167L3.46667 15.3834V25.1334H22.425V15.275L19.825 11.9167ZM9.42501 9.31669C9.42501 9.10003 10.2917 7.04169 10.725 5.74169H15.4917V5.85002C15.925 6.71669 16.9 8.55836 16.9 8.88336V14.5167C16.9 14.8417 16.6833 14.8417 16.4667 14.8417C16.1417 14.8417 16.0333 14.5167 16.0333 14.5167V11.9167C16.0333 11.5917 15.8167 11.375 15.4917 11.375C15.1667 11.375 14.95 11.5917 14.95 11.9167V15.1667C14.95 15.3834 14.625 15.4917 14.5167 15.4917C14.3 15.4917 13.975 15.3834 13.975 15.1667V11.9167C13.975 11.5917 13.7583 11.375 13.325 11.375C13 11.375 12.7833 11.5917 12.7833 11.9167V15.7084C12.7833 16.0334 12.4583 16.0334 12.2417 16.0334C12.025 16.0334 11.8083 15.8167 11.8083 15.7084V11.9167C11.8083 11.5917 11.5917 11.375 11.2667 11.375C10.9417 11.375 10.4 11.5917 10.4 11.9167V15.7084C10.4 15.8167 10.1833 16.0334 9.85834 16.0334C9.53334 16.0334 9.42501 15.8167 9.42501 15.7084V9.31669ZM4.87501 23.725V15.8167L7.15001 12.675C7.47501 12.2417 7.80001 11.9167 8.01667 11.9167H8.12501V13.5417L7.58334 13.325C7.25834 13.2167 6.93334 13.325 6.82501 13.5417C6.71668 13.8667 6.82501 14.1917 7.04167 14.3L8.01667 14.8417L6.71667 16.575C6.50001 16.7917 6.60834 17.225 6.82501 17.4417C6.93334 17.55 7.04167 17.55 7.15001 17.55C7.36667 17.55 7.47501 17.4417 7.58334 17.3334L8.23334 16.4667C8.55834 16.9 9.10001 17.225 9.75001 17.225C10.1833 17.225 10.6167 17.1167 10.8333 16.9C11.1583 17.1167 11.4833 17.225 11.9167 17.225C12.5667 17.225 13 17.0084 13.325 16.575C13.5417 16.6834 13.8667 16.6834 14.0833 16.6834C14.7333 16.6834 15.275 16.3584 15.6 15.925C15.8167 16.0334 16.0333 16.0334 16.25 16.0334C16.9 16.0334 17.3333 15.8167 17.6583 15.3834L18.9583 17.0084C19.0667 17.1167 19.2833 17.225 19.3917 17.225C19.5 17.225 19.6083 17.225 19.7167 17.1167C19.9333 16.9 20.0417 16.575 19.825 16.25L18.4167 14.5167L18.6333 14.4084C18.85 14.1917 18.9583 13.8667 18.7417 13.5417C18.525 13.325 18.2 13.2167 17.875 13.4334V12.1334C18.0917 12.2417 18.3083 12.4584 18.525 12.7834L20.8 15.8167V23.725H4.87501Z" fill="black"/>
</svg>
