<svg width="26" height="26" viewBox="0 0 26 26" fill="none" xmlns="http://www.w3.org/2000/svg">
<path d="M10.2916 16.7916L8.34164 18.7416L8.12497 21.9916L7.04164 23.075L5.09164 18.85L0.866638 16.9L1.94997 15.8166L5.19997 15.6L10.1833 10.8333L2.49164 7.79997L4.00831 6.2833H14.7333L18.525 2.49164C19.5 1.51664 21.5583 0.974971 22.3166 1.7333C23.075 2.49164 22.5333 4.54997 21.5583 5.52497L17.7666 9.31664V10.1833C17.6583 10.1833 17.55 10.1833 17.55 10.1833C13.7583 10.1833 10.725 13.1083 10.2916 16.7916ZM23.4 17.4416C23.4 20.6916 20.8 23.2916 17.55 23.2916C14.3 23.2916 11.7 20.6916 11.7 17.4416C11.7 14.1916 14.3 11.5916 17.55 11.5916C20.8 11.5916 23.4 14.1916 23.4 17.4416ZM13.975 19.9333L20.2583 13.8666C19.5 13.325 18.6333 13 17.6583 13C15.275 13 13.2166 14.95 13.2166 17.4416C13.1083 18.4166 13.4333 19.175 13.975 19.9333ZM21.9916 17.4416C21.9916 16.4666 21.6666 15.6 21.125 14.95L14.8416 21.0166C15.6 21.5583 16.4666 21.8833 17.4416 21.8833C20.0416 21.8833 21.9916 19.825 21.9916 17.4416Z" fill="black"/>
</svg>
