<svg width="26" height="26" viewBox="0 0 26 26" fill="none" xmlns="http://www.w3.org/2000/svg">
<path d="M19.7167 6.39167L19.5 6.60833C19.2833 6.825 18.7417 6.825 18.525 7.04167C18.525 6.28333 18.0917 5.63333 17.55 4.875C17.9833 4.65833 18.3083 4.65833 18.7417 4.44167C18.9583 4.44167 18.9583 4.44167 19.175 4.44167C19.3917 4.225 19.175 3.68333 18.7417 3.25C18.3083 2.81667 17.7667 2.49167 17.55 2.81667C17.55 2.81667 17.55 3.03333 17.55 3.25C17.55 3.68333 17.3333 4.00833 17.1167 4.225C16.6833 3.79167 15.925 3.46667 14.95 3.25C14.95 3.03333 15.1667 2.49167 15.3833 2.275C15.6 2.275 15.6 2.05833 15.6 2.05833C15.6 1.84167 15.1667 1.625 14.4083 1.625C13.65 1.625 13.2167 1.84167 13.2167 2.05833L13.4333 2.275C13.65 2.49167 13.65 3.03333 13.8667 3.25C13.1083 3.25 12.4583 3.68333 11.7 4.225C11.4833 4.00833 11.4833 3.79167 11.2667 3.25C11.2667 3.03333 11.2667 3.03333 11.2667 2.81667C11.05 2.6 10.5083 2.81667 10.075 3.25C9.64166 3.79167 9.31666 4.225 9.64166 4.44167C9.64166 4.44167 9.85833 4.44167 10.075 4.44167C10.5083 4.44167 10.8333 4.65833 11.05 4.875C10.6167 5.41667 10.2917 6.175 10.075 7.04167C9.85833 7.04167 9.31666 6.825 9.09999 6.60833C9.09999 6.39167 8.88333 6.39167 8.88333 6.39167C8.66666 6.39167 8.44999 6.825 8.44999 7.58333C8.44999 8.34167 8.66666 8.775 8.88333 8.775L9.09999 8.55833C9.31666 8.34167 9.85833 8.34167 10.075 8.125C10.075 8.88333 10.5083 9.53333 11.05 10.2917C10.8333 10.4 10.6167 10.4 10.075 10.725C9.85833 10.725 9.85833 10.725 9.64166 10.725C9.42499 10.9417 9.64166 11.4833 10.075 11.9167C10.5083 12.35 11.05 12.675 11.2667 12.35C11.2667 12.35 11.2667 12.1333 11.2667 11.9167C11.2667 11.4833 11.4833 11.1583 11.7 10.9417C12.1333 11.375 12.8917 11.7 13.8667 11.9167C13.8667 12.1333 13.65 12.675 13.4333 12.8917C13.2167 12.8917 13.2167 13.1083 13.2167 13.1083C13.2167 13.325 13.65 13.5417 14.4083 13.5417C15.1667 13.5417 15.6 13.325 15.6 13.1083L15.3833 12.8917C15.1667 12.1333 15.1667 11.9167 14.8417 11.375C15.6 11.375 16.25 10.9417 17.0083 10.4C17.0083 10.8333 17.225 11.1583 17.225 11.5917C17.225 11.8083 17.225 11.8083 17.225 12.025C17.4417 12.2417 17.9833 12.025 18.4167 11.5917C18.85 11.1583 19.175 10.6167 18.85 10.4C18.85 10.4 18.6333 10.4 18.4167 10.4C17.9833 10.4 17.6583 10.1833 17.4417 9.96667C17.875 9.53333 18.2 8.775 18.4167 7.8C18.6333 7.8 19.175 8.01667 19.3917 8.23333C19.3917 8.45 19.6083 8.45 19.6083 8.45C19.825 8.45 20.0417 8.01667 20.0417 7.25833C20.15 6.825 19.9333 6.39167 19.7167 6.39167ZM13 18.3083L12.7833 18.525C12.5667 18.7417 12.2417 18.7417 12.025 18.9583C12.025 18.4167 11.5917 17.7667 11.2667 17.225C11.7 17.0083 11.8083 17.0083 12.2417 16.7917C12.4583 16.7917 12.4583 16.7917 12.675 16.7917C12.8917 16.575 12.675 16.25 12.2417 15.8167C11.8083 15.3833 11.4833 15.275 11.2667 15.3833C11.2667 15.3833 11.2667 15.6 11.2667 15.8167C11.2667 16.25 11.05 16.3583 10.8333 16.575C10.4 16.1417 9.85833 16.0333 9.09999 15.8167C9.09999 15.6 9.31666 15.275 9.53333 15.0583C9.74999 15.0583 9.74999 14.8417 9.74999 14.8417C9.74999 14.625 9.31666 14.4083 8.77499 14.4083C8.23333 14.4083 7.79999 14.625 7.79999 14.8417L8.01666 15.0583C8.23333 15.275 8.23333 15.6 8.44999 15.8167C7.90833 15.8167 7.25833 16.25 6.71666 16.575C6.49999 16.3583 6.49999 16.1417 6.28333 15.8167C6.28333 15.6 6.28333 15.6 6.28333 15.3833C6.06666 15.1667 5.74166 15.3833 5.30833 15.8167C4.87499 16.25 4.76666 16.575 4.87499 16.7917C4.87499 16.7917 5.09166 16.7917 5.30833 16.7917C5.74166 16.7917 5.84999 17.0083 6.06666 17.225C5.63333 17.6583 5.52499 18.2 5.30833 18.9583C5.09166 18.9583 4.76666 18.7417 4.54999 18.525C4.54999 18.3083 4.33333 18.3083 4.33333 18.3083C4.11666 18.3083 3.89999 18.7417 3.89999 19.2833C3.89999 19.825 4.11666 20.2583 4.33333 20.2583V20.15C4.54999 19.9333 4.87499 19.9333 5.09166 19.7167C5.09166 20.2583 5.52499 20.9083 5.84999 21.45C5.74166 21.6667 5.52499 21.6667 5.09166 21.8833C4.87499 21.8833 4.87499 21.8833 4.65833 21.8833C4.44166 22.1 4.65833 22.425 5.09166 22.8583C5.52499 23.2917 5.84999 23.4 6.06666 23.2917C6.06666 23.2917 6.06666 23.075 6.06666 22.8583C6.06666 22.425 6.28333 22.3167 6.49999 22.1C6.93333 22.5333 7.47499 22.6417 8.23333 22.8583C8.23333 23.075 8.01666 23.4 7.79999 23.6167C7.58333 23.6167 7.58333 23.8333 7.58333 23.8333C7.58333 24.05 8.01666 24.2667 8.55833 24.2667C9.09999 24.2667 9.53333 24.05 9.53333 23.8333L9.31666 23.6167C9.09999 23.075 9.09999 22.8583 8.88333 22.425C9.42499 22.425 10.075 21.9917 10.6167 21.6667C10.6167 22.1 10.8333 22.2083 10.8333 22.6417C10.8333 22.8583 10.8333 22.8583 10.8333 23.075C11.05 23.2917 11.375 23.075 11.8083 22.6417C12.2417 22.2083 12.35 21.8833 12.2417 21.6667C12.2417 21.6667 12.025 21.6667 11.8083 21.6667C11.375 21.6667 11.2667 21.45 11.05 21.2333C11.4833 20.8 11.5917 20.2583 11.8083 19.5C12.025 19.5 12.35 19.7167 12.5667 19.9333C12.5667 20.15 12.7833 20.15 12.7833 20.15C13 20.15 13.2167 19.7167 13.2167 19.175C13.4333 18.7417 13.2167 18.3083 13 18.3083ZM23.5083 16.3583L23.4 16.4667C23.2917 16.575 22.9667 16.575 22.8583 16.7917C22.8583 16.3583 22.5333 15.925 22.3167 15.4917C22.6417 15.3833 22.75 15.3833 23.075 15.1667C23.1833 15.1667 23.1833 15.1667 23.4 15.1667C23.5083 15.0583 23.4 14.7333 23.075 14.4083C22.75 14.0833 22.5333 13.975 22.3167 14.0833C22.3167 14.0833 22.3167 14.1917 22.3167 14.4083C22.3167 14.7333 22.2083 14.8417 21.9917 14.95C21.6667 14.625 21.2333 14.5167 20.6917 14.4083C20.6917 14.3 20.8 13.975 21.0167 13.8667C21.125 13.8667 21.125 13.7583 21.125 13.7583C21.125 13.65 20.8 13.4333 20.3667 13.4333C19.9333 13.4333 19.6083 13.5417 19.6083 13.7583L19.7167 13.8667C19.825 13.975 19.825 14.3 20.0417 14.4083C19.6083 14.4083 19.175 14.7333 18.7417 14.95C18.6333 14.8417 18.6333 14.625 18.4167 14.4083C18.4167 14.3 18.4167 14.3 18.4167 14.0833C18.3083 13.975 17.9833 14.0833 17.6583 14.4083C17.3333 14.7333 17.225 14.95 17.3333 15.1667C17.3333 15.1667 17.4417 15.1667 17.6583 15.1667C17.9833 15.1667 18.0917 15.275 18.2 15.4917C17.875 15.8167 17.7667 16.25 17.6583 16.7917C17.55 16.7917 17.225 16.6833 17.1167 16.4667C17.1167 16.3583 17.0083 16.3583 17.0083 16.3583C16.9 16.3583 16.6833 16.6833 16.6833 17.1167C16.6833 17.55 16.7917 17.875 17.0083 17.875L17.1167 17.7667C17.225 17.6583 17.55 17.6583 17.6583 17.4417C17.6583 17.875 17.9833 18.3083 18.2 18.7417C18.0917 18.85 17.875 18.85 17.6583 19.0667C17.55 19.0667 17.55 19.0667 17.3333 19.0667C17.225 19.175 17.3333 19.5 17.6583 19.825C17.9833 20.15 18.2 20.2583 18.4167 20.15C18.4167 20.15 18.4167 20.0417 18.4167 19.825C18.4167 19.5 18.525 19.3917 18.7417 19.2833C19.0667 19.6083 19.5 19.7167 20.0417 19.825C20.0417 19.9333 19.9333 20.2583 19.7167 20.3667C19.6083 20.3667 19.6083 20.475 19.6083 20.475C19.6083 20.5833 19.9333 20.8 20.3667 20.8C20.8 20.8 21.125 20.6917 21.125 20.475L21.0167 20.3667C20.9083 19.9333 20.9083 19.825 20.6917 19.5C21.125 19.5 21.5583 19.175 21.9917 18.9583C21.9917 19.2833 22.1 19.3917 22.1 19.7167C22.1 19.825 22.1 19.825 22.1 20.0417C22.2083 20.15 22.5333 20.0417 22.8583 19.7167C23.1833 19.3917 23.2917 19.175 23.1833 18.9583C23.1833 18.9583 23.075 18.9583 22.8583 18.9583C22.5333 18.9583 22.425 18.85 22.3167 18.6333C22.6417 18.3083 22.75 17.875 22.8583 17.3333C22.9667 17.3333 23.2917 17.4417 23.4 17.6583C23.4 17.7667 23.5083 17.7667 23.5083 17.7667C23.6167 17.7667 23.8333 17.4417 23.8333 17.0083C23.8333 16.6833 23.725 16.3583 23.5083 16.3583Z" fill="black"/>
</svg>
