<svg width="26" height="26" viewBox="0 0 26 26" fill="none" xmlns="http://www.w3.org/2000/svg">
<path d="M4.98334 8.01665C4.98334 7.69165 5.09167 7.36665 5.2 7.36665C5.2 7.36665 5.30833 7.47499 5.30833 7.58332C5.41667 7.69165 5.63334 7.79999 5.85 7.79999C5.85 7.36665 6.06667 7.04165 6.28333 6.71665C6.06667 6.60832 5.95833 6.49999 5.74167 6.49999C5.63334 6.49999 5.525 6.49999 5.525 6.49999C5.41667 6.39165 5.525 6.17499 5.74167 5.84999C6.06667 5.63332 6.28333 5.52499 6.39167 5.63332C6.39167 5.63332 6.39167 5.74165 6.39167 5.84999C6.39167 6.06665 6.5 6.28332 6.60833 6.39165C6.93333 6.17499 7.25833 5.95832 7.69167 5.95832C7.69167 5.74165 7.58333 5.63332 7.475 5.41665C7.36667 5.41665 7.36667 5.30832 7.36667 5.30832C7.36667 5.09165 7.58333 4.98332 8.01667 5.09165C8.34167 5.09165 8.66667 5.19999 8.66667 5.30832C8.66667 5.30832 8.55833 5.41665 8.45 5.41665C8.34167 5.63332 8.23333 5.74165 8.23333 5.95832C8.66667 5.95832 8.99167 6.17499 9.31667 6.39165C9.425 6.17499 9.53333 6.06665 9.53333 5.84999C9.53333 5.74165 9.53333 5.63332 9.53333 5.63332C9.53333 5.52499 9.85833 5.63332 10.1833 5.84999C10.4 6.17499 10.5083 6.39165 10.4 6.49999C10.4 6.49999 10.2917 6.49999 10.1833 6.49999C9.96667 6.60832 9.75 6.60832 9.64167 6.71665C9.85833 7.04165 10.075 7.36665 10.075 7.79999C10.2917 7.79999 10.4 7.69165 10.725 7.47499C10.8333 7.47499 10.9417 7.69165 10.9417 8.01665C10.9417 8.34165 10.8333 8.66666 10.725 8.66666C10.725 8.66666 10.6167 8.66665 10.6167 8.55832C10.4 8.44999 10.2917 8.34165 10.075 8.34165C10.075 8.77499 9.85833 9.09999 9.64167 9.42499C9.75 9.53332 9.96667 9.53332 10.1833 9.64165C10.2917 9.64165 10.4 9.64165 10.4 9.64165C10.5083 9.74999 10.2917 9.96665 10.1833 10.2917C9.85833 10.5083 9.64167 10.6167 9.53333 10.5083C9.53333 10.5083 9.53333 10.4 9.53333 10.2917C9.53333 10.075 9.425 9.85832 9.31667 9.74999C8.99167 9.96665 8.66667 10.1833 8.23333 10.1833C8.23333 10.4 8.34167 10.5083 8.45 10.725C8.55833 10.725 8.66667 10.725 8.66667 10.8333C8.66667 10.9417 8.34167 11.05 8.01667 11.05C7.69167 11.05 7.36667 10.9417 7.36667 10.8333C7.36667 10.8333 7.36667 10.725 7.475 10.725C7.58333 10.5083 7.69167 10.4 7.69167 10.1833C7.25833 10.1833 6.93333 9.96665 6.60833 9.74999C6.5 9.85832 6.39167 10.075 6.39167 10.1833C6.39167 10.2917 6.39167 10.4 6.39167 10.4C6.28333 10.5083 5.95833 10.4 5.74167 10.1833C5.525 9.96665 5.41667 9.74999 5.525 9.64165C5.525 9.64165 5.63334 9.64165 5.74167 9.64165C5.95833 9.53332 6.06667 9.53332 6.28333 9.42499C6.06667 9.09999 5.85 8.77499 5.85 8.34165C5.63334 8.34165 5.41667 8.44999 5.30833 8.55832C5.2 8.66665 5.2 8.66666 5.09167 8.66666C4.98334 8.66666 4.875 8.44999 4.98334 8.01665ZM12.4583 6.17499L12.5667 6.06665C12.675 5.95832 12.8917 5.95832 13 5.84999C13 6.17499 13.2167 6.49999 13.4333 6.82499C13.325 6.93332 13.2167 6.93332 13 7.04165C12.8917 7.04165 12.8917 7.04165 12.7833 7.04165C12.675 7.14999 12.7833 7.36665 13 7.58332C13.2167 7.79999 13.4333 7.90832 13.5417 7.79999C13.5417 7.79999 13.5417 7.69165 13.5417 7.58332C13.5417 7.36665 13.65 7.25832 13.7583 7.14999C13.975 7.36665 14.3 7.47499 14.7333 7.58332C14.7333 7.69165 14.625 7.90832 14.5167 8.01665C14.4083 8.01665 14.4083 8.12499 14.4083 8.12499C14.4083 8.23332 14.625 8.34165 14.95 8.34165C15.275 8.34165 15.4917 8.23332 15.4917 8.12499L15.3833 8.01665C15.275 7.69165 15.275 7.58332 15.1667 7.36665C15.4917 7.36665 15.8167 7.14999 16.1417 6.93332C16.1417 7.14999 16.25 7.25832 16.25 7.47499C16.25 7.58332 16.25 7.58332 16.25 7.69165C16.3583 7.79999 16.575 7.69165 16.7917 7.47499C17.0083 7.25832 17.1167 7.04165 17.0083 6.93332C17.0083 6.93332 16.9 6.93332 16.7917 6.93332C16.575 6.93332 16.4667 6.82499 16.3583 6.71665C16.575 6.49999 16.6833 6.17499 16.7917 5.74165C16.9 5.74165 17.1167 5.84999 17.225 5.95832C17.225 6.06665 17.3333 6.06665 17.3333 6.06665C17.4417 6.06665 17.55 5.84999 17.55 5.52499C17.55 5.30832 17.4417 5.09165 17.3333 5.09165L17.225 5.19999C17.1167 5.30832 16.9 5.30832 16.7917 5.41665C16.7917 5.09165 16.575 4.76665 16.3583 4.44165C16.575 4.33332 16.6833 4.33332 16.9 4.22499C17.0083 4.22499 17.0083 4.22499 17.1167 4.22499C17.225 4.11665 17.1167 3.89999 16.9 3.68332C16.6833 3.46665 16.4667 3.35832 16.3583 3.46665C16.3583 3.46665 16.3583 3.57499 16.3583 3.68332C16.3583 3.89999 16.25 4.00832 16.1417 4.11665C15.925 3.89999 15.6 3.79165 15.1667 3.68332C15.1667 3.57499 15.275 3.35832 15.3833 3.24999C15.4917 3.24999 15.4917 3.14165 15.4917 3.14165C15.4917 3.03332 15.275 2.92499 14.95 2.92499C14.625 2.92499 14.4083 3.03332 14.4083 3.14165L14.5167 3.24999C14.625 3.35832 14.625 3.57499 14.7333 3.68332C14.4083 3.68332 14.0833 3.89999 13.7583 4.11665C13.65 4.00832 13.65 3.89999 13.5417 3.68332C13.5417 3.57499 13.5417 3.57499 13.5417 3.46665C13.4333 3.35832 13.2167 3.46665 13 3.68332C12.7833 3.89999 12.675 4.11665 12.7833 4.22499C12.7833 4.22499 12.8917 4.22499 13 4.22499C13.2167 4.22499 13.325 4.33332 13.4333 4.44165C13.2167 4.65832 13.1083 4.98332 13 5.41665C12.8917 5.41665 12.675 5.30832 12.5667 5.19999C12.5667 5.09165 12.4583 5.09165 12.4583 5.09165C12.35 5.09165 12.2417 5.30832 12.2417 5.63332C12.2417 5.95832 12.35 6.17499 12.4583 6.17499ZM17.6583 10.5083C17.6583 10.5083 17.7667 10.5083 17.7667 10.4C17.875 10.2917 17.9833 10.2917 18.0917 10.2917C18.0917 10.5083 18.2 10.8333 18.4167 10.9417C18.3083 11.05 18.2 11.05 18.0917 11.05C17.9833 11.05 17.9833 11.05 17.9833 11.05C17.875 11.1583 17.9833 11.2667 18.2 11.4833C18.3083 11.5917 18.525 11.7 18.6333 11.7V11.5917C18.6333 11.4833 18.7417 11.375 18.7417 11.2667C18.9583 11.375 19.175 11.4833 19.3917 11.5917C19.3917 11.7 19.2833 11.8083 19.2833 11.9167C19.175 11.9167 19.175 12.025 19.175 12.025C19.175 12.1333 19.3917 12.1333 19.6083 12.1333C19.825 12.1333 20.0417 12.025 20.0417 12.025C20.0417 12.025 20.0417 11.9167 19.9333 11.9167C19.825 11.8083 19.825 11.7 19.825 11.5917C20.0417 11.5917 20.3667 11.4833 20.475 11.2667C20.5833 11.375 20.5833 11.4833 20.5833 11.5917C20.5833 11.7 20.5833 11.7 20.5833 11.7C20.6917 11.8083 20.8 11.7 21.0167 11.4833C21.125 11.375 21.2333 11.1583 21.2333 11.05H21.125C21.0167 11.05 20.9083 10.9417 20.8 10.9417C20.9083 10.725 21.0167 10.5083 21.125 10.2917C21.2333 10.2917 21.3417 10.4 21.45 10.4C21.45 10.5083 21.5583 10.5083 21.5583 10.5083C21.6667 10.5083 21.6667 10.2917 21.6667 10.075C21.5583 9.74999 21.45 9.53332 21.3417 9.53332C21.125 9.74999 21.0167 9.74999 20.9083 9.85832C20.9083 9.64166 20.8 9.31665 20.5833 9.20832C20.6917 9.09999 20.8 9.09999 20.9083 9.09999C21.0167 9.09999 21.0167 9.09999 21.0167 9.09999C21.125 8.99165 21.0167 8.88332 20.8 8.66666C20.8 8.44999 20.5833 8.34166 20.5833 8.44999V8.55832C20.5833 8.66665 20.475 8.77499 20.475 8.88332C20.2583 8.77499 20.0417 8.66665 19.825 8.55832C19.825 8.44999 19.9333 8.34165 19.9333 8.23332C20.0417 8.23332 20.0417 8.12499 20.0417 8.12499C20.0417 8.01665 19.825 8.01665 19.6083 8.01665C19.3917 8.01665 19.175 8.12499 19.175 8.12499C19.175 8.12499 19.175 8.23332 19.2833 8.23332C19.3917 8.34165 19.3917 8.44999 19.3917 8.55832C19.175 8.55832 18.85 8.66665 18.7417 8.88332C18.6333 8.77499 18.6333 8.66665 18.6333 8.55832C18.6333 8.44999 18.6333 8.44999 18.6333 8.44999C18.525 8.34166 18.4167 8.44999 18.2 8.66666C18.0917 8.77499 17.9833 8.99165 17.9833 9.09999H18.0917C18.2 9.09999 18.3083 9.20832 18.4167 9.20832C18.3083 9.42499 18.2 9.64166 18.0917 9.85832C17.9833 9.85832 17.875 9.74999 17.7667 9.74999C17.7667 9.64165 17.6583 9.64165 17.6583 9.64165C17.55 9.64165 17.55 9.85832 17.55 10.075C17.55 10.2917 17.6583 10.5083 17.6583 10.5083ZM6.175 22.8583L6.28333 23.2917H0.866669V22.3167C0.866669 21.3417 0.975002 20.475 2.38334 20.15C2.925 20.0417 3.79167 19.825 3.9 19.6083C3.9 19.6083 3.9 19.5 3.79167 19.3917C2.81667 17.55 2.70834 16.0333 3.35834 14.8417C3.79167 14.0833 4.65833 13.65 5.63333 13.65C7.25833 13.65 8.34167 14.7333 8.34167 16.4667C8.34167 18.4167 7.69167 19.0667 7.15 19.6083C6.60833 20.15 6.175 20.5833 6.175 22.8583ZM5.30833 22.2083C5.41667 20.15 5.95833 19.3917 6.60833 18.7417C7.04167 18.3083 7.475 17.875 7.475 16.3583C7.475 15.275 6.825 14.625 5.85 14.625C5.2 14.625 4.76667 14.8417 4.44167 15.275C4.00834 16.0333 4.225 17.225 4.98334 18.7417C5.2 19.175 5.2 19.6083 5.09167 19.9333C4.76667 20.5833 3.79167 20.8 2.81667 21.125C2.05834 21.3417 2.05834 21.45 2.05834 22.2083H5.30833ZM19.6083 23.2917V22.75C19.6083 20.475 19.175 20.0417 18.6333 19.5C18.0917 18.9583 17.4417 18.3083 17.4417 16.3583C17.4417 14.7333 18.525 13.5417 20.15 13.5417C21.125 13.5417 21.9917 13.975 22.425 14.7333C23.075 15.8167 22.9667 17.4417 21.9917 19.2833C21.8833 19.3917 21.8833 19.5 21.8833 19.5C21.9917 19.7167 22.8583 19.9333 23.4 20.0417C24.8083 20.3667 24.9167 21.2333 24.9167 22.2083L25.025 23.2917H19.6083ZM20.6917 22.2083H23.9417C23.9417 21.45 23.8333 21.3417 23.1833 21.125L23.2917 20.5833L23.075 21.125C22.1 20.9083 21.125 20.6917 20.8 19.9333C20.5833 19.6083 20.6917 19.175 20.9083 18.7417C21.6667 17.3333 21.8833 16.0333 21.45 15.275C21.2333 14.8417 20.6917 14.625 20.0417 14.625C19.0667 14.625 18.4167 15.275 18.4167 16.3583C18.4167 17.875 18.7417 18.3083 19.2833 18.7417C20.0417 19.3917 20.5833 20.15 20.6917 22.2083ZM19.2833 22.2083V23.2917H6.71667V22.2083C6.71667 20.9083 6.825 19.825 8.66667 19.5C9.53333 19.2833 10.725 19.0667 10.8333 18.6333C10.9417 18.525 10.8333 18.3083 10.725 18.0917C9.425 15.8167 9.20833 13.65 10.075 12.2417C10.6167 11.2667 11.7 10.725 13 10.725C14.3 10.725 15.275 11.2667 15.925 12.2417C16.7917 13.65 16.575 15.7083 15.275 18.0917C15.1667 18.2 15.0583 18.4167 15.1667 18.525C15.3833 18.85 16.4667 19.175 17.3333 19.3917C19.175 19.825 19.2833 20.9083 19.2833 22.2083ZM18.2 22.2083C18.2 21.125 18.2 20.8 17.1167 20.475C15.8167 20.15 14.625 19.9333 14.1917 19.0667C13.975 18.6333 14.0833 18.2 14.3 17.6583C15.3833 15.6 15.6 13.975 14.95 12.8917C14.5167 12.2417 13.8667 11.9167 13 11.9167C12.1333 11.9167 11.375 12.2417 11.05 12.8917C10.4 13.975 10.6167 15.7083 11.7 17.6583C12.025 18.2 12.025 18.6333 11.8083 19.0667C11.375 19.9333 10.1833 20.15 8.99167 20.475C7.8 20.6917 7.8 21.0167 7.8 22.2083H18.2Z" fill="black"/>
</svg>
