<svg width="26" height="26" viewBox="0 0 26 26" fill="none" xmlns="http://www.w3.org/2000/svg">
<path d="M21.125 15.1667C20.9083 15.0583 20.6917 14.95 20.3667 14.95C19.9333 14.95 19.5 15.0583 19.0667 15.3833C19.0667 15.3833 17.1167 16.7917 15.925 17.7667C15.8167 17.1167 15.275 16.575 14.625 16.3583C12.35 15.6 11.2667 15.0583 9.96667 15.0583C9.20833 15.0583 8.55833 15.1667 7.90833 15.4917L6.06667 16.25V14.3H1.625V23.9417H5.95833V22.5333C7.36667 22.6417 9.20833 22.8583 12.1333 23.725C12.675 23.8333 13.1083 23.9417 13.5417 23.9417C14.5167 23.9417 15.3833 23.6167 16.1417 22.8583C16.6833 22.425 19.9333 19.5 21.45 18.0917C21.8833 17.7667 22.1 17.225 22.1 16.6833C22.2083 16.0333 21.5583 15.3833 21.125 15.1667ZM4.98333 22.8583H2.70833V15.3833H4.98333V22.8583ZM20.8 17.225C18.4167 19.3917 16.9 20.6917 15.4917 21.9917C14.3 23.075 13.325 22.8583 12.4583 22.6417C10.8333 22.2083 8.34167 21.5583 6.06667 21.45C6.06667 21.45 6.06667 17.3333 6.28333 17.225C7.04167 17.0083 7.90833 16.6833 8.55833 16.3583C9.96667 15.8167 10.9417 16.1417 12.35 16.575C13.8667 17.1167 13.7583 17.1167 14.4083 17.3333C15.3833 17.55 15.0583 18.85 13.975 18.525C13.325 18.3083 12.025 18.0917 11.5917 17.9833C10.8333 17.7667 10.6167 18.6333 11.2667 18.85C12.2417 19.0667 14.1917 19.6083 14.625 19.6083C15.0583 19.6083 15.3833 19.3917 15.8167 19.0667C16.575 18.525 19.7167 16.0333 19.7167 16.0333C20.5833 15.275 21.6667 16.3583 20.8 17.225ZM21.2333 7.69167C21.125 7.69167 21.0167 7.69167 20.9083 7.69167C20.9083 7.58333 20.9083 7.475 20.9083 7.36667V7.04167C21.2333 6.71667 21.2333 6.28333 21.2333 6.06667C21.2333 5.95833 21.2333 5.85 21.125 5.74167H22.6417C23.1833 5.74167 23.5083 5.41667 23.6167 4.98333C23.8333 4.33333 23.4 3.575 22.8583 3.35833L22.6417 3.25C22.1 3.03333 21.2333 2.70833 20.3667 2.49167C20.0417 1.95 19.5 1.625 18.85 1.625C18.2 1.625 17.6583 2.05833 17.3333 2.6C16.4667 2.81667 15.7083 3.14167 15.0583 3.35833L14.8417 3.46667C14.3 3.575 13.975 4.33333 14.0833 4.875C14.1917 5.30833 14.5167 5.63333 15.0583 5.63333H16.575C16.575 5.74167 16.4667 5.85 16.4667 5.95833C16.4667 6.28333 16.4667 6.60833 16.7917 6.93333V7.15C16.7917 7.36667 16.7917 7.475 16.7917 7.475C16.6833 7.475 16.575 7.475 16.4667 7.475H13.65C13 7.475 12.35 7.58333 11.9167 7.69167C11.4833 7.8 11.05 8.01667 10.725 8.34167C10.075 8.99167 9.64167 9.53333 9.425 10.1833C9.20833 10.725 9.1 11.375 9.1 12.025V14.4083H13.2167V12.025C13.2167 11.9167 13.2167 11.8083 13.2167 11.7C13.325 11.7 13.4333 11.7 13.65 11.7H15.3833C15.4917 11.7 15.6 11.8083 15.925 12.025C16.3583 12.4583 17.1167 13.2167 18.85 13.2167C20.5833 13.2167 21.3417 12.4583 21.8833 12.025C22.2083 11.7 22.3167 11.5917 22.5333 11.5917H24.8083V7.69167H21.2333ZM15.275 4.65833C15.1667 4.55 15.1667 4.44167 15.275 4.44167L15.4917 4.33333C16.1417 4.11667 17.0083 3.79167 17.875 3.575L18.2 3.46667V3.25C18.4167 2.70833 19.2833 2.70833 19.5 3.25L19.6083 3.575L19.9333 3.68333C20.8 3.79167 21.6667 4.11667 22.3167 4.33333L22.5333 4.44167C22.5333 4.44167 22.6417 4.55 22.6417 4.65833H19.7167H18.3083H18.2H15.275ZM23.6167 10.6167H22.425C21.775 10.6167 21.45 10.9417 21.0167 11.2667C20.5833 11.7 20.0417 12.1333 18.7417 12.1333C17.4417 12.1333 17.0083 11.7 16.6833 11.2667C16.3583 10.9417 16.0333 10.5083 15.3833 10.5083H13.65C13.2167 10.5083 12.8917 10.6167 12.7833 10.6167C12.5667 10.725 12.4583 10.725 12.35 10.9417C12.2417 11.05 12.2417 11.1583 12.2417 11.2667C12.1333 11.4833 12.1333 11.7 12.1333 12.025V13.325H10.1833V12.025C10.1833 11.4833 10.2917 10.9417 10.4 10.5083C10.6167 10.075 10.9417 9.64167 11.2667 9.31667C11.4833 9.1 11.8083 8.99167 12.1333 8.88333C12.5667 8.775 13 8.66667 13.5417 8.66667H16.3583C16.7917 8.66667 17.0083 8.55833 17.225 8.55833C17.3333 8.45 17.4417 8.45 17.55 8.23333C17.55 8.23333 17.6583 8.125 17.6583 7.90833C17.6583 7.8 17.7667 7.475 17.7667 7.15V6.175L17.55 6.06667V5.95833C17.55 5.85 17.875 5.63333 18.2 5.525H19.5C19.825 5.63333 20.15 5.85 20.15 5.85C20.15 5.85 20.15 5.95833 20.15 6.06667L19.825 6.175V6.60833V7.15C19.825 7.475 19.825 7.8 19.9333 7.90833C19.9333 8.01667 20.0417 8.125 20.15 8.23333C20.2583 8.34167 20.3667 8.34167 20.475 8.45C20.5833 8.66667 20.8 8.775 21.2333 8.775H23.6167V10.6167Z" fill="black"/>
</svg>
