<svg width="26" height="26" viewBox="0 0 26 26" fill="none" xmlns="http://www.w3.org/2000/svg">
<path d="M23.984 10.708C24.1 9.39 23.537 8.809 23.19 8.579C22.795 8.317 22.145 8.151 21.147 8.522C21.159 8.364 21.174 8.205 21.174 8.053C21.174 7.052 20.258 6.264 18.452 5.712C16.954 5.253 14.973 5 12.875 5C10.776 5 8.795 5.253 7.296 5.712C5.49 6.264 4.574 7.052 4.574 8.053C4.574 9.384 4.873 10.737 5.41 12.002C2.596 13.031 2 14.532 2 15.613C2 17.165 3.206 18.572 5.396 19.574C7.405 20.494 10.061 21 12.875 21C15.689 21 18.345 20.494 20.354 19.574C22.544 18.572 23.75 17.165 23.75 15.613C23.75 14.902 23.481 13.961 22.405 13.105C23.329 12.377 23.915 11.5 23.984 10.708ZM4.963 8.331C4.963 8.331 5.336 8.56 5.899 8.844C5.847 8.67 5.824 8.482 5.869 8.256C5.964 7.901 6.348 7.475 7.816 7.05C9.181 6.655 10.977 6.438 12.875 6.438C14.772 6.438 16.569 6.655 17.934 7.05C19.402 7.474 19.834 7.951 19.881 8.205C19.907 8.399 19.898 8.564 19.871 8.716C20.495 8.334 20.929 8 20.929 8C20.929 8.772 20.26 10.494 18.453 11.094C16.954 11.592 14.973 11.867 12.874 11.867C10.776 11.867 8.795 11.593 7.295 11.094C5.49 10.494 5.106 8.882 4.963 8.331ZM12.875 19.562C7.263 19.562 3.351 17.481 3.351 15.613C3.351 14.672 4.358 13.861 6.058 13.286C6.331 13.746 6.634 14.19 6.975 14.603C8.595 16.569 10.69 17.651 12.875 17.651C14.883 17.651 16.875 16.541 18.527 14.536C19.4 14.502 20.274 14.288 21.087 13.907C21.758 14.299 22.399 14.866 22.399 15.612C22.398 17.481 18.487 19.562 12.875 19.562ZM22.639 10.574C22.609 10.914 22.201 11.542 21.376 12.12C21.028 12.364 20.43 12.712 19.655 12.927C20.165 12.059 20.566 11.151 20.826 10.263C21.782 9.686 22.312 9.692 22.477 9.8C22.613 9.891 22.674 10.18 22.639 10.574ZM7.816 9.64C7.282 9.473 6.768 9.257 6.324 9.05C7.652 8.364 10.081 7.901 12.875 7.901C15.62 7.901 18.01 8.348 19.353 9.014C18.913 9.254 18.425 9.486 17.934 9.64C16.569 10.069 14.773 10.305 12.875 10.305C10.977 10.305 9.181 10.069 7.816 9.64Z" fill="black"/>
</svg>
