<svg width="26" height="26" viewBox="0 0 26 26" fill="none" xmlns="http://www.w3.org/2000/svg">
<path d="M14.833 13C14.833 13.945 14.011 14.714 13 14.714C11.989 14.714 11.167 13.945 11.167 13C11.167 12.055 11.989 11.286 13 11.286C14.011 11.286 14.833 12.055 14.833 13ZM24 13C24 13 20.102 19 13.014 19C6.432 19 2 13 2 13C2 13 6.076 7 13.014 7C20.067 7 24 13 24 13ZM16.667 13C16.667 11.107 15.025 9.571 13 9.571C10.976 9.571 9.333 11.107 9.333 13C9.333 14.893 10.976 16.429 13 16.429C15.025 16.429 16.667 14.893 16.667 13Z" fill="black"/>
</svg>
