<svg width="26" height="26" viewBox="0 0 26 26" fill="none" xmlns="http://www.w3.org/2000/svg">
<path d="M22.434 6.641L17.834 4.017L14.599 9.69V5C14.599 3.9 13.699 3 12.599 3H12.016C10.686 3 9.599 4.088 9.599 5.417V5.5C9.599 5.225 9.374 5 9.099 5C8.824 5 8.599 5.225 8.599 5.5V9.5C8.599 9.507 8.603 9.512 8.603 9.519L6.98 7.007L3.19 5.524L3 9.609L5.19 13H3.599V20.778C3.599 21.889 4.742 23 5.884 23H17.313C18.456 23 19.599 21.889 19.599 20.778V13H18.807L22.434 6.641ZM6.54 13L4.15 9.299L4.249 7.156L6.227 7.93L9.501 13H6.54ZM9.599 11.062L8.875 9.94C8.943 9.975 9.017 10 9.099 10C9.374 10 9.599 9.775 9.599 9.5V11.062ZM13.599 11.442L12.71 13H10.85L10.599 12.61V8H13.599V11.442ZM13.599 7H10.599V5C10.599 4.494 11.093 4 11.599 4H12.599C13.105 4 13.599 4.494 13.599 5V7ZM13.861 13L15.114 10.804L16.056 11.342C16.431 11.556 16.91 11.425 17.125 11.049C17.34 10.673 17.208 10.194 16.833 9.98L15.891 9.442L16.601 8.198L17.543 8.736C17.918 8.95 18.397 8.819 18.612 8.443C18.827 8.067 18.695 7.588 18.32 7.374L17.378 6.836L18.208 5.38L21.071 7.013L17.656 13H13.861Z" fill="black"/>
</svg>
