<svg width="26" height="26" viewBox="0 0 26 26" fill="none" xmlns="http://www.w3.org/2000/svg">
<path d="M13 2C6.925 2 2 6.925 2 13C2 19.075 6.925 24 13 24C19.075 24 24 19.075 24 13C24 6.925 19.075 2 13 2ZM14 21H12V19H14V21ZM15.988 13.988C15.988 13.988 13.997 15.258 14 17H12C12 17 11.92 16.114 12.498 14.949C12.869 14.2 13.51 13.338 14.627 12.519L15 12.221C15.61 11.672 16 10.885 16 10C16 8.343 14.657 7 13 7C11.343 7 10 8.343 10 10H8C8 7.239 10.239 5 13 5C15.761 5 18 7.239 18 10C18 11.637 17.205 13.077 15.988 13.988Z" fill="black"/>
</svg>
