<svg width="26" height="26" viewBox="0 0 26 26" fill="none" xmlns="http://www.w3.org/2000/svg">
<path d="M18.1 3H7.9C7.4 3 7 3.4 7 3.9V22.1C7 22.6 7.4 23 7.9 23H18.1C18.6 23 19 22.6 19 22.1V3.9C19 3.4 18.6 3 18.1 3ZM11.6 3.9H14.3C14.6 3.9 14.8 4.1 14.8 4.4C14.8 4.7 14.6 4.9 14.3 4.9H11.6C11.3 4.9 11.1 4.7 11.1 4.4C11.2 4.1 11.4 3.9 11.6 3.9ZM13 22.1C12.5 22.1 12.1 21.7 12.1 21.2C12.1 20.7 12.5 20.3 13 20.3C13.5 20.3 13.9 20.7 13.9 21.2C13.9 21.7 13.5 22.1 13 22.1ZM17.5 19.4H8.4V5.7H17.5V19.4Z" fill="black"/>
</svg>
