<svg width="26" height="26" viewBox="0 0 26 26" fill="none" xmlns="http://www.w3.org/2000/svg">
<path d="M8.99999 18L6.27799 20.174L6.07099 19.377C5.92599 18.814 6.00399 18.215 6.28999 17.712L7.99999 14C8.30099 15.212 8.55399 16.411 8.99999 18ZM19.709 17.711L18 14C17.696 15.254 17.44 16.318 17 18L19.722 20.174L19.929 19.377C20.074 18.814 19.995 18.216 19.709 17.711ZM11.6 22.087H10.667V19.217H11.6V22.087ZM13.467 24H12.533V19.217H13.466V24H13.467ZM15.333 23.043H14.4V19.217H15.333V23.043ZM13 2C10.287 3.895 9.11199 6.156 9.11199 8.96C9.11199 11.489 9.70699 14.828 10.667 18.261H15.334C16.253 14.726 16.862 11.407 16.89 8.933C16.92 6.108 15.768 3.906 13 2ZM13 9C11.895 9 11 8.105 11 7C11 5.895 11.895 5 13 5C14.105 5 15 5.895 15 7C15 8.105 14.105 9 13 9Z" fill="black"/>
</svg>
