<svg width="26" height="26" viewBox="0 0 26 26" fill="none" xmlns="http://www.w3.org/2000/svg">
<path d="M4.92399 19.13L4.72399 18.8L4.39399 18.85C4.03999 18.914 3.80499 19.251 3.86899 19.605C3.93299 19.958 4.27099 20.193 4.62399 20.13L5.62399 19.97C5.37199 19.706 5.13799 19.426 4.92399 19.13ZM3.49399 15.39C3.26999 15.443 3.09199 15.611 3.02399 15.83C2.93199 16.169 3.12099 16.52 3.45399 16.63L3.72399 16.71C3.62599 16.383 3.55199 16.048 3.50399 15.71L3.49399 15.39ZM21.162 18.83L21.173 18.812L21.612 18.88C21.614 18.88 21.617 18.881 21.619 18.881C21.968 18.941 22.202 19.271 22.142 19.62C22.141 19.624 22.141 19.629 22.14 19.633C22.087 19.977 21.766 20.213 21.421 20.16L20.27 19.98C20.511 19.715 20.738 19.438 20.95 19.15L21.149 18.828L21.162 18.83ZM22.572 16.59L22.152 16.72C22.244 16.391 22.317 16.057 22.372 15.72V15.39C22.316 15.38 22.258 15.38 22.202 15.39L17.88 16.71C17.547 16.82 17.361 17.174 17.46 17.51C17.462 17.517 17.463 17.523 17.465 17.53C17.558 17.865 17.905 18.062 18.24 17.97L22.142 16.78C22.034 17.161 21.893 17.532 21.722 17.89L21.173 18.812L21.162 18.81L21.151 18.828L18.111 18.35C18.107 18.349 18.103 18.349 18.098 18.348C17.753 18.302 17.436 18.545 17.39 18.89C17.39 18.892 17.389 18.895 17.389 18.897C17.333 19.246 17.571 19.574 17.92 19.63L20.271 20C18.337 21.956 15.689 23.039 12.938 23C10.193 23.039 7.55099 21.955 5.62499 20L8.13599 19.61C8.48199 19.544 8.71499 19.219 8.66599 18.87C8.66499 18.866 8.66499 18.861 8.66399 18.857C8.61099 18.513 8.28999 18.277 7.94499 18.33L4.76399 18.83L4.19399 17.88C4.01499 17.504 3.87099 17.112 3.76399 16.71L7.76599 17.95C8.06299 18 8.35599 17.839 8.47299 17.562C8.61299 17.231 8.45699 16.85 8.12599 16.711L3.77399 15.391C3.66899 15.366 3.55899 15.366 3.45399 15.391V14.251C3.51199 13.292 3.75999 12.354 4.18399 11.491V3.43201C4.18399 2.98201 4.60399 2.89201 4.96399 3.20201C5.32399 3.51201 9.56599 6.98101 9.56599 6.98101C11.752 6.26101 14.113 6.26101 16.299 6.98101L20.931 3.15201C21.231 2.90201 21.651 2.94201 21.651 3.40201V11.501C22.072 12.367 22.317 13.309 22.371 14.271V15.381C22.653 15.375 22.904 15.56 22.981 15.831C23.058 16.151 22.882 16.477 22.572 16.59ZM9.72599 14.79C10.279 14.79 10.726 14.342 10.726 13.79C10.726 13.238 10.278 12.79 9.72599 12.79C9.17399 12.79 8.72599 13.238 8.72599 13.79C8.72599 14.342 9.17399 14.79 9.72599 14.79ZM16.139 17.69H15.399C15.169 17.69 15.129 17.78 15.079 17.96C14.967 18.249 14.689 18.44 14.379 18.44C13.976 18.076 13.717 17.579 13.649 17.04C13.649 16.84 13.529 16.8 13.369 16.79H12.519C12.359 16.79 12.269 16.84 12.239 17.04C12.171 17.579 11.912 18.076 11.509 18.44C11.199 18.44 10.92 18.249 10.809 17.96C10.809 17.78 10.719 17.69 10.489 17.69H9.74899C9.57899 17.69 9.39899 17.83 9.43899 18C9.57899 19.038 10.462 19.814 11.51 19.82C12.125 19.756 12.663 19.377 12.931 18.82C13.205 19.376 13.745 19.753 14.362 19.82C15.408 19.81 16.289 19.036 16.433 18C16.49 17.83 16.309 17.69 16.139 17.69ZM16.893 13.543C16.808 13.168 16.515 12.876 16.14 12.79C15.601 12.913 15.264 13.449 15.387 13.987C15.472 14.362 15.765 14.654 16.14 14.74C16.678 14.618 17.015 14.082 16.893 13.543Z" fill="black"/>
</svg>
